{
  "header": {
    "PPQ": 384,
    "timeSignature": [
      4,
      4
    ],
    "bpm": 136.0001450668214,
  },
  "tempo": [
    {
      "absoluteTime": 0,
      "seconds": 0,
      "bpm": 136.0001450668214
    }
  ],
  "timeSignature": [
    {
      "absoluteTime": 0,
      "seconds": 0,
      "numerator": 4,
      "denominator": 2,
      "click": 24,
      "notesQ": 8
    }
  ],
  "startTime": 0.110294,
  "duration": 76.76462400000051,
  "tracks": [
    {
      "startTime": 0.110294,
      "duration": 76.76462400000051,
      "length": 744,
      "notes": [
        {
          "name": "B3",
          "midi": 59,
          "time": 0.110294,
          "velocity": 0.7874015748031497,
          "duration": 0.110294
        },
        {
          "name": "D#4",
          "midi": 63,
          "time": 0.220588,
          "velocity": 0.7874015748031497,
          "duration": 0.110294
        },
        {
          "name": "B3",
          "midi": 59,
          "time": 0.330882,
          "velocity": 0.7874015748031497,
          "duration": 0.110294
        },
        {
          "name": "F#4",
          "midi": 66,
          "time": 0.441176,
          "velocity": 0.7874015748031497,
          "duration": 0.110294
        },
        {
          "name": "B3",
          "midi": 59,
          "time": 0.55147,
          "velocity": 0.7874015748031497,
          "duration": 0.110294
        },
        {
          "name": "D#4",
          "midi": 63,
          "time": 0.661764,
          "velocity": 0.7874015748031497,
          "duration": 0.110294
        },
        {
          "name": "B3",
          "midi": 59,
          "time": 0.772058,
          "velocity": 0.7874015748031497,
          "duration": 0.110294
        },
        {
          "name": "F#4",
          "midi": 66,
          "time": 0.882352,
          "velocity": 0.7874015748031497,
          "duration": 0.110294
        },
        {
          "name": "B3",
          "midi": 59,
          "time": 0.992646,
          "velocity": 0.7874015748031497,
          "duration": 0.110294
        },
        {
          "name": "D#4",
          "midi": 63,
          "time": 1.10294,
          "velocity": 0.7874015748031497,
          "duration": 0.11029399999999989
        },
        {
          "name": "B3",
          "midi": 59,
          "time": 1.213234,
          "velocity": 0.7874015748031497,
          "duration": 0.11029400000000011
        },
        {
          "name": "F#4",
          "midi": 66,
          "time": 1.323528,
          "velocity": 0.7874015748031497,
          "duration": 0.11029400000000011
        },
        {
          "name": "B3",
          "midi": 59,
          "time": 1.4338220000000002,
          "velocity": 0.7874015748031497,
          "duration": 0.11029400000000011
        },
        {
          "name": "D#4",
          "midi": 63,
          "time": 1.5441160000000003,
          "velocity": 0.7874015748031497,
          "duration": 0.11029400000000011
        },
        {
          "name": "B3",
          "midi": 59,
          "time": 1.6544100000000004,
          "velocity": 0.7874015748031497,
          "duration": 0.11029400000000011
        },
        {
          "name": "F#4",
          "midi": 66,
          "time": 1.7647040000000005,
          "velocity": 0.7874015748031497,
          "duration": 0.11029400000000011
        },
        {
          "name": "B3",
          "midi": 59,
          "time": 1.8749980000000006,
          "velocity": 0.7874015748031497,
          "duration": 0.11029400000000011
        },
        {
          "name": "D#4",
          "midi": 63,
          "time": 1.9852920000000007,
          "velocity": 0.7874015748031497,
          "duration": 0.11029400000000011
        },
        {
          "name": "B3",
          "midi": 59,
          "time": 2.095586000000001,
          "velocity": 0.7874015748031497,
          "duration": 0.11029400000000011
        },
        {
          "name": "F#4",
          "midi": 66,
          "time": 2.205880000000001,
          "velocity": 0.7874015748031497,
          "duration": 0.11029400000000011
        },
        {
          "name": "B3",
          "midi": 59,
          "time": 2.316174000000001,
          "velocity": 0.7874015748031497,
          "duration": 0.11029400000000011
        },
        {
          "name": "D#4",
          "midi": 63,
          "time": 2.426468000000001,
          "velocity": 0.7874015748031497,
          "duration": 0.11029400000000011
        },
        {
          "name": "B3",
          "midi": 59,
          "time": 2.5367620000000013,
          "velocity": 0.7874015748031497,
          "duration": 0.11029400000000011
        },
        {
          "name": "F#4",
          "midi": 66,
          "time": 2.6470560000000014,
          "velocity": 0.7874015748031497,
          "duration": 0.11029400000000011
        },
        {
          "name": "B3",
          "midi": 59,
          "time": 2.7573500000000015,
          "velocity": 0.7874015748031497,
          "duration": 0.11029400000000011
        },
        {
          "name": "D#4",
          "midi": 63,
          "time": 2.8676440000000016,
          "velocity": 0.7874015748031497,
          "duration": 0.11029400000000011
        },
        {
          "name": "B3",
          "midi": 59,
          "time": 2.9779380000000018,
          "velocity": 0.7874015748031497,
          "duration": 0.11029400000000011
        },
        {
          "name": "F#4",
          "midi": 66,
          "time": 3.088232000000002,
          "velocity": 0.7874015748031497,
          "duration": 0.11029400000000011
        },
        {
          "name": "B3",
          "midi": 59,
          "time": 3.198526000000002,
          "velocity": 0.7874015748031497,
          "duration": 0.11029400000000011
        },
        {
          "name": "D#4",
          "midi": 63,
          "time": 3.308820000000002,
          "velocity": 0.7874015748031497,
          "duration": 0.11029400000000011
        },
        {
          "name": "B3",
          "midi": 59,
          "time": 3.419114000000002,
          "velocity": 0.7874015748031497,
          "duration": 0.11029400000000011
        },
        {
          "name": "F#4",
          "midi": 66,
          "time": 3.5294080000000023,
          "velocity": 0.7874015748031497,
          "duration": 0.11029400000000011
        },
        {
          "name": "B3",
          "midi": 59,
          "time": 3.6397020000000024,
          "velocity": 0.7874015748031497,
          "duration": 0.11029400000000011
        },
        {
          "name": "E4",
          "midi": 64,
          "time": 3.7499960000000025,
          "velocity": 0.7874015748031497,
          "duration": 0.11029400000000011
        },
        {
          "name": "B3",
          "midi": 59,
          "time": 3.8602900000000027,
          "velocity": 0.7874015748031497,
          "duration": 0.11029400000000011
        },
        {
          "name": "G4",
          "midi": 67,
          "time": 3.9705840000000028,
          "velocity": 0.7874015748031497,
          "duration": 0.11029400000000011
        },
        {
          "name": "B3",
          "midi": 59,
          "time": 4.080878000000003,
          "velocity": 0.7874015748031497,
          "duration": 0.11029399999999967
        },
        {
          "name": "E4",
          "midi": 64,
          "time": 4.191172000000003,
          "velocity": 0.7874015748031497,
          "duration": 0.11029399999999967
        },
        {
          "name": "B3",
          "midi": 59,
          "time": 4.301466000000002,
          "velocity": 0.7874015748031497,
          "duration": 0.11029399999999967
        },
        {
          "name": "G4",
          "midi": 67,
          "time": 4.411760000000002,
          "velocity": 0.7874015748031497,
          "duration": 0.11029399999999967
        },
        {
          "name": "B3",
          "midi": 59,
          "time": 4.522054000000002,
          "velocity": 0.7874015748031497,
          "duration": 0.11029399999999967
        },
        {
          "name": "E4",
          "midi": 64,
          "time": 4.632348000000001,
          "velocity": 0.7874015748031497,
          "duration": 0.11029399999999967
        },
        {
          "name": "B3",
          "midi": 59,
          "time": 4.742642000000001,
          "velocity": 0.7874015748031497,
          "duration": 0.11029399999999967
        },
        {
          "name": "G4",
          "midi": 67,
          "time": 4.852936000000001,
          "velocity": 0.7874015748031497,
          "duration": 0.11029399999999967
        },
        {
          "name": "B3",
          "midi": 59,
          "time": 4.96323,
          "velocity": 0.7874015748031497,
          "duration": 0.11029399999999967
        },
        {
          "name": "E4",
          "midi": 64,
          "time": 5.073524,
          "velocity": 0.7874015748031497,
          "duration": 0.11029399999999967
        },
        {
          "name": "B3",
          "midi": 59,
          "time": 5.183818,
          "velocity": 0.7874015748031497,
          "duration": 0.11029399999999967
        },
        {
          "name": "G4",
          "midi": 67,
          "time": 5.294111999999999,
          "velocity": 0.7874015748031497,
          "duration": 0.11029399999999967
        },
        {
          "name": "B3",
          "midi": 59,
          "time": 5.404405999999999,
          "velocity": 0.7874015748031497,
          "duration": 0.11029399999999967
        },
        {
          "name": "E4",
          "midi": 64,
          "time": 5.514699999999999,
          "velocity": 0.7874015748031497,
          "duration": 0.11029399999999967
        },
        {
          "name": "B3",
          "midi": 59,
          "time": 5.624993999999998,
          "velocity": 0.7874015748031497,
          "duration": 0.11029399999999967
        },
        {
          "name": "G4",
          "midi": 67,
          "time": 5.735287999999998,
          "velocity": 0.7874015748031497,
          "duration": 0.11029399999999967
        },
        {
          "name": "B3",
          "midi": 59,
          "time": 5.845581999999998,
          "velocity": 0.7874015748031497,
          "duration": 0.11029399999999967
        },
        {
          "name": "E4",
          "midi": 64,
          "time": 5.955875999999997,
          "velocity": 0.7874015748031497,
          "duration": 0.11029399999999967
        },
        {
          "name": "B3",
          "midi": 59,
          "time": 6.066169999999997,
          "velocity": 0.7874015748031497,
          "duration": 0.11029399999999967
        },
        {
          "name": "G4",
          "midi": 67,
          "time": 6.176463999999997,
          "velocity": 0.7874015748031497,
          "duration": 0.11029399999999967
        },
        {
          "name": "B3",
          "midi": 59,
          "time": 6.286757999999996,
          "velocity": 0.7874015748031497,
          "duration": 0.11029399999999967
        },
        {
          "name": "E4",
          "midi": 64,
          "time": 6.397051999999996,
          "velocity": 0.7874015748031497,
          "duration": 0.11029399999999967
        },
        {
          "name": "B3",
          "midi": 59,
          "time": 6.507345999999996,
          "velocity": 0.7874015748031497,
          "duration": 0.11029399999999967
        },
        {
          "name": "G4",
          "midi": 67,
          "time": 6.617639999999995,
          "velocity": 0.7874015748031497,
          "duration": 0.11029399999999967
        },
        {
          "name": "B3",
          "midi": 59,
          "time": 6.727933999999995,
          "velocity": 0.7874015748031497,
          "duration": 0.11029399999999967
        },
        {
          "name": "E4",
          "midi": 64,
          "time": 6.838227999999995,
          "velocity": 0.7874015748031497,
          "duration": 0.11029399999999967
        },
        {
          "name": "B3",
          "midi": 59,
          "time": 6.948521999999994,
          "velocity": 0.7874015748031497,
          "duration": 0.11029399999999967
        },
        {
          "name": "G4",
          "midi": 67,
          "time": 7.058815999999994,
          "velocity": 0.7874015748031497,
          "duration": 0.11029399999999967
        },
        {
          "name": "B3",
          "midi": 59,
          "time": 7.169109999999994,
          "velocity": 0.7874015748031497,
          "duration": 0.11029399999999967
        },
        {
          "name": "D#4",
          "midi": 63,
          "time": 7.279403999999993,
          "velocity": 0.7874015748031497,
          "duration": 0.11029399999999967
        },
        {
          "name": "B3",
          "midi": 59,
          "time": 7.389697999999993,
          "velocity": 0.7874015748031497,
          "duration": 0.11029399999999967
        },
        {
          "name": "F#4",
          "midi": 66,
          "time": 7.499991999999993,
          "velocity": 0.7874015748031497,
          "duration": 0.11029399999999967
        },
        {
          "name": "B3",
          "midi": 59,
          "time": 7.610285999999992,
          "velocity": 0.7874015748031497,
          "duration": 0.11029399999999967
        },
        {
          "name": "D#4",
          "midi": 63,
          "time": 7.720579999999992,
          "velocity": 0.7874015748031497,
          "duration": 0.11029399999999967
        },
        {
          "name": "B3",
          "midi": 59,
          "time": 7.830873999999992,
          "velocity": 0.7874015748031497,
          "duration": 0.11029399999999967
        },
        {
          "name": "F#4",
          "midi": 66,
          "time": 7.941167999999991,
          "velocity": 0.7874015748031497,
          "duration": 0.11029400000000056
        },
        {
          "name": "B3",
          "midi": 59,
          "time": 8.051461999999992,
          "velocity": 0.7874015748031497,
          "duration": 0.11029399999999967
        },
        {
          "name": "D#4",
          "midi": 63,
          "time": 8.161755999999992,
          "velocity": 0.7874015748031497,
          "duration": 0.11029399999999967
        },
        {
          "name": "B3",
          "midi": 59,
          "time": 8.272049999999991,
          "velocity": 0.7874015748031497,
          "duration": 0.11029399999999967
        },
        {
          "name": "F#4",
          "midi": 66,
          "time": 8.382343999999991,
          "velocity": 0.7874015748031497,
          "duration": 0.11029399999999967
        },
        {
          "name": "B3",
          "midi": 59,
          "time": 8.49263799999999,
          "velocity": 0.7874015748031497,
          "duration": 0.11029399999999967
        },
        {
          "name": "D#4",
          "midi": 63,
          "time": 8.60293199999999,
          "velocity": 0.7874015748031497,
          "duration": 0.11029399999999967
        },
        {
          "name": "B3",
          "midi": 59,
          "time": 8.71322599999999,
          "velocity": 0.7874015748031497,
          "duration": 0.11029399999999967
        },
        {
          "name": "F#4",
          "midi": 66,
          "time": 8.82351999999999,
          "velocity": 0.7874015748031497,
          "duration": 0.11029399999999967
        },
        {
          "name": "B3",
          "midi": 59,
          "time": 8.93381399999999,
          "velocity": 0.7874015748031497,
          "duration": 0.11029399999999967
        },
        {
          "name": "D#4",
          "midi": 63,
          "time": 9.044107999999989,
          "velocity": 0.7874015748031497,
          "duration": 0.11029399999999967
        },
        {
          "name": "B3",
          "midi": 59,
          "time": 9.154401999999989,
          "velocity": 0.7874015748031497,
          "duration": 0.11029399999999967
        },
        {
          "name": "F#4",
          "midi": 66,
          "time": 9.264695999999988,
          "velocity": 0.7874015748031497,
          "duration": 0.11029399999999967
        },
        {
          "name": "B3",
          "midi": 59,
          "time": 9.374989999999988,
          "velocity": 0.7874015748031497,
          "duration": 0.11029399999999967
        },
        {
          "name": "D#4",
          "midi": 63,
          "time": 9.485283999999988,
          "velocity": 0.7874015748031497,
          "duration": 0.11029399999999967
        },
        {
          "name": "B3",
          "midi": 59,
          "time": 9.595577999999987,
          "velocity": 0.7874015748031497,
          "duration": 0.11029399999999967
        },
        {
          "name": "F#4",
          "midi": 66,
          "time": 9.705871999999987,
          "velocity": 0.7874015748031497,
          "duration": 0.11029399999999967
        },
        {
          "name": "B3",
          "midi": 59,
          "time": 9.816165999999987,
          "velocity": 0.7874015748031497,
          "duration": 0.11029399999999967
        },
        {
          "name": "D#4",
          "midi": 63,
          "time": 9.926459999999986,
          "velocity": 0.7874015748031497,
          "duration": 0.11029399999999967
        },
        {
          "name": "B3",
          "midi": 59,
          "time": 10.036753999999986,
          "velocity": 0.7874015748031497,
          "duration": 0.11029399999999967
        },
        {
          "name": "F#4",
          "midi": 66,
          "time": 10.147047999999986,
          "velocity": 0.7874015748031497,
          "duration": 0.11029399999999967
        },
        {
          "name": "B3",
          "midi": 59,
          "time": 10.257341999999985,
          "velocity": 0.7874015748031497,
          "duration": 0.11029399999999967
        },
        {
          "name": "D#4",
          "midi": 63,
          "time": 10.367635999999985,
          "velocity": 0.7874015748031497,
          "duration": 0.11029399999999967
        },
        {
          "name": "B3",
          "midi": 59,
          "time": 10.477929999999985,
          "velocity": 0.7874015748031497,
          "duration": 0.11029399999999967
        },
        {
          "name": "F#4",
          "midi": 66,
          "time": 10.588223999999984,
          "velocity": 0.7874015748031497,
          "duration": 0.11029399999999967
        },
        {
          "name": "B3",
          "midi": 59,
          "time": 10.698517999999984,
          "velocity": 0.7874015748031497,
          "duration": 0.11029399999999967
        },
        {
          "name": "E4",
          "midi": 64,
          "time": 10.808811999999984,
          "velocity": 0.7874015748031497,
          "duration": 0.11029399999999967
        },
        {
          "name": "B3",
          "midi": 59,
          "time": 10.919105999999983,
          "velocity": 0.7874015748031497,
          "duration": 0.11029399999999967
        },
        {
          "name": "G4",
          "midi": 67,
          "time": 11.029399999999983,
          "velocity": 0.7874015748031497,
          "duration": 0.11029399999999967
        },
        {
          "name": "B3",
          "midi": 59,
          "time": 11.139693999999983,
          "velocity": 0.7874015748031497,
          "duration": 0.11029399999999967
        },
        {
          "name": "E4",
          "midi": 64,
          "time": 11.249987999999982,
          "velocity": 0.7874015748031497,
          "duration": 0.11029399999999967
        },
        {
          "name": "B3",
          "midi": 59,
          "time": 11.360281999999982,
          "velocity": 0.7874015748031497,
          "duration": 0.11029399999999967
        },
        {
          "name": "G4",
          "midi": 67,
          "time": 11.470575999999982,
          "velocity": 0.7874015748031497,
          "duration": 0.11029399999999967
        },
        {
          "name": "B3",
          "midi": 59,
          "time": 11.580869999999981,
          "velocity": 0.7874015748031497,
          "duration": 0.11029399999999967
        },
        {
          "name": "E4",
          "midi": 64,
          "time": 11.691163999999981,
          "velocity": 0.7874015748031497,
          "duration": 0.11029399999999967
        },
        {
          "name": "B3",
          "midi": 59,
          "time": 11.80145799999998,
          "velocity": 0.7874015748031497,
          "duration": 0.11029399999999967
        },
        {
          "name": "G4",
          "midi": 67,
          "time": 11.91175199999998,
          "velocity": 0.7874015748031497,
          "duration": 0.11029399999999967
        },
        {
          "name": "B3",
          "midi": 59,
          "time": 12.02204599999998,
          "velocity": 0.7874015748031497,
          "duration": 0.11029399999999967
        },
        {
          "name": "E4",
          "midi": 64,
          "time": 12.13233999999998,
          "velocity": 0.7874015748031497,
          "duration": 0.11029399999999967
        },
        {
          "name": "B3",
          "midi": 59,
          "time": 12.24263399999998,
          "velocity": 0.7874015748031497,
          "duration": 0.11029399999999967
        },
        {
          "name": "G4",
          "midi": 67,
          "time": 12.352927999999979,
          "velocity": 0.7874015748031497,
          "duration": 0.11029399999999967
        },
        {
          "name": "B3",
          "midi": 59,
          "time": 12.463221999999979,
          "velocity": 0.7874015748031497,
          "duration": 0.11029399999999967
        },
        {
          "name": "E4",
          "midi": 64,
          "time": 12.573515999999978,
          "velocity": 0.7874015748031497,
          "duration": 0.11029399999999967
        },
        {
          "name": "B3",
          "midi": 59,
          "time": 12.683809999999978,
          "velocity": 0.7874015748031497,
          "duration": 0.11029399999999967
        },
        {
          "name": "G4",
          "midi": 67,
          "time": 12.794103999999978,
          "velocity": 0.7874015748031497,
          "duration": 0.11029399999999967
        },
        {
          "name": "B3",
          "midi": 59,
          "time": 12.904397999999977,
          "velocity": 0.7874015748031497,
          "duration": 0.11029399999999967
        },
        {
          "name": "E4",
          "midi": 64,
          "time": 13.014691999999977,
          "velocity": 0.7874015748031497,
          "duration": 0.11029399999999967
        },
        {
          "name": "B3",
          "midi": 59,
          "time": 13.124985999999977,
          "velocity": 0.7874015748031497,
          "duration": 0.11029399999999967
        },
        {
          "name": "G4",
          "midi": 67,
          "time": 13.235279999999976,
          "velocity": 0.7874015748031497,
          "duration": 0.11029399999999967
        },
        {
          "name": "B3",
          "midi": 59,
          "time": 13.345573999999976,
          "velocity": 0.7874015748031497,
          "duration": 0.11029399999999967
        },
        {
          "name": "E4",
          "midi": 64,
          "time": 13.455867999999976,
          "velocity": 0.7874015748031497,
          "duration": 0.11029399999999967
        },
        {
          "name": "B3",
          "midi": 59,
          "time": 13.566161999999975,
          "velocity": 0.7874015748031497,
          "duration": 0.11029399999999967
        },
        {
          "name": "G4",
          "midi": 67,
          "time": 13.676455999999975,
          "velocity": 0.7874015748031497,
          "duration": 0.11029399999999967
        },
        {
          "name": "B3",
          "midi": 59,
          "time": 13.786749999999975,
          "velocity": 0.7874015748031497,
          "duration": 0.11029399999999967
        },
        {
          "name": "E4",
          "midi": 64,
          "time": 13.897043999999974,
          "velocity": 0.7874015748031497,
          "duration": 0.11029399999999967
        },
        {
          "name": "B3",
          "midi": 59,
          "time": 14.007337999999974,
          "velocity": 0.7874015748031497,
          "duration": 0.11029399999999967
        },
        {
          "name": "G4",
          "midi": 67,
          "time": 14.117631999999974,
          "velocity": 0.7874015748031497,
          "duration": 0.11029399999999967
        },
        {
          "name": "B3",
          "midi": 59,
          "time": 14.227925999999973,
          "velocity": 0.7874015748031497,
          "duration": 0.11029399999999967
        },
        {
          "name": "B4",
          "midi": 71,
          "time": 14.338219999999973,
          "velocity": 0.7874015748031497,
          "duration": 0.11029399999999967
        },
        {
          "name": "B3",
          "midi": 59,
          "time": 14.448513999999973,
          "velocity": 0.7874015748031497,
          "duration": 0.11029399999999967
        },
        {
          "name": "A4",
          "midi": 69,
          "time": 14.558807999999972,
          "velocity": 0.7874015748031497,
          "duration": 0.11029399999999967
        },
        {
          "name": "B3",
          "midi": 59,
          "time": 14.669101999999972,
          "velocity": 0.7874015748031497,
          "duration": 0.11029399999999967
        },
        {
          "name": "G#4",
          "midi": 68,
          "time": 14.779395999999972,
          "velocity": 0.7874015748031497,
          "duration": 0.11029399999999967
        },
        {
          "name": "B3",
          "midi": 59,
          "time": 14.889689999999971,
          "velocity": 0.7874015748031497,
          "duration": 0.11029399999999967
        },
        {
          "name": "A4",
          "midi": 69,
          "time": 14.999983999999971,
          "velocity": 0.7874015748031497,
          "duration": 0.11029399999999967
        },
        {
          "name": "B3",
          "midi": 59,
          "time": 15.11027799999997,
          "velocity": 0.7874015748031497,
          "duration": 0.11029399999999967
        },
        {
          "name": "G#4",
          "midi": 68,
          "time": 15.22057199999997,
          "velocity": 0.7874015748031497,
          "duration": 0.11029399999999967
        },
        {
          "name": "B3",
          "midi": 59,
          "time": 15.33086599999997,
          "velocity": 0.7874015748031497,
          "duration": 0.11029399999999967
        },
        {
          "name": "F#4",
          "midi": 66,
          "time": 15.44115999999997,
          "velocity": 0.7874015748031497,
          "duration": 0.11029399999999967
        },
        {
          "name": "B3",
          "midi": 59,
          "time": 15.55145399999997,
          "velocity": 0.7874015748031497,
          "duration": 0.11029399999999967
        },
        {
          "name": "G#4",
          "midi": 68,
          "time": 15.66174799999997,
          "velocity": 0.7874015748031497,
          "duration": 0.11029399999999967
        },
        {
          "name": "B3",
          "midi": 59,
          "time": 15.772041999999969,
          "velocity": 0.7874015748031497,
          "duration": 0.11029399999999967
        },
        {
          "name": "E4",
          "midi": 64,
          "time": 15.882335999999968,
          "velocity": 0.7874015748031497,
          "duration": 0.11029399999999967
        },
        {
          "name": "B3",
          "midi": 59,
          "time": 15.992629999999968,
          "velocity": 0.7874015748031497,
          "duration": 0.11029400000000145
        },
        {
          "name": "F#4",
          "midi": 66,
          "time": 16.10292399999997,
          "velocity": 0.7874015748031497,
          "duration": 0.11029399999999967
        },
        {
          "name": "B3",
          "midi": 59,
          "time": 16.21321799999997,
          "velocity": 0.7874015748031497,
          "duration": 0.11029399999999967
        },
        {
          "name": "D#4",
          "midi": 63,
          "time": 16.32351199999997,
          "velocity": 0.7874015748031497,
          "duration": 0.11029399999999967
        },
        {
          "name": "B3",
          "midi": 59,
          "time": 16.43380599999997,
          "velocity": 0.7874015748031497,
          "duration": 0.11029399999999967
        },
        {
          "name": "E4",
          "midi": 64,
          "time": 16.54409999999997,
          "velocity": 0.7874015748031497,
          "duration": 0.11029399999999967
        },
        {
          "name": "B3",
          "midi": 59,
          "time": 16.654393999999968,
          "velocity": 0.7874015748031497,
          "duration": 0.11029399999999967
        },
        {
          "name": "D#4",
          "midi": 63,
          "time": 16.764687999999968,
          "velocity": 0.7874015748031497,
          "duration": 0.11029399999999967
        },
        {
          "name": "B3",
          "midi": 59,
          "time": 16.874981999999967,
          "velocity": 0.7874015748031497,
          "duration": 0.11029399999999967
        },
        {
          "name": "E4",
          "midi": 64,
          "time": 16.985275999999967,
          "velocity": 0.7874015748031497,
          "duration": 0.11029399999999967
        },
        {
          "name": "B3",
          "midi": 59,
          "time": 17.095569999999967,
          "velocity": 0.7874015748031497,
          "duration": 0.11029399999999967
        },
        {
          "name": "D#4",
          "midi": 63,
          "time": 17.205863999999966,
          "velocity": 0.7874015748031497,
          "duration": 0.11029399999999967
        },
        {
          "name": "B3",
          "midi": 59,
          "time": 17.316157999999966,
          "velocity": 0.7874015748031497,
          "duration": 0.11029399999999967
        },
        {
          "name": "E4",
          "midi": 64,
          "time": 17.426451999999966,
          "velocity": 0.7874015748031497,
          "duration": 0.11029399999999967
        },
        {
          "name": "B3",
          "midi": 59,
          "time": 17.536745999999965,
          "velocity": 0.7874015748031497,
          "duration": 0.11029399999999967
        },
        {
          "name": "D#4",
          "midi": 63,
          "time": 17.647039999999965,
          "velocity": 0.7874015748031497,
          "duration": 0.11029399999999967
        },
        {
          "name": "B3",
          "midi": 59,
          "time": 17.757333999999965,
          "velocity": 0.7874015748031497,
          "duration": 0.11029399999999967
        },
        {
          "name": "B4",
          "midi": 71,
          "time": 17.867627999999964,
          "velocity": 0.7874015748031497,
          "duration": 0.11029399999999967
        },
        {
          "name": "B3",
          "midi": 59,
          "time": 17.977921999999964,
          "velocity": 0.7874015748031497,
          "duration": 0.11029399999999967
        },
        {
          "name": "A4",
          "midi": 69,
          "time": 18.088215999999964,
          "velocity": 0.7874015748031497,
          "duration": 0.11029399999999967
        },
        {
          "name": "B3",
          "midi": 59,
          "time": 18.198509999999963,
          "velocity": 0.7874015748031497,
          "duration": 0.11029399999999967
        },
        {
          "name": "G#4",
          "midi": 68,
          "time": 18.308803999999963,
          "velocity": 0.7874015748031497,
          "duration": 0.11029399999999967
        },
        {
          "name": "B3",
          "midi": 59,
          "time": 18.419097999999963,
          "velocity": 0.7874015748031497,
          "duration": 0.11029399999999967
        },
        {
          "name": "A4",
          "midi": 69,
          "time": 18.529391999999962,
          "velocity": 0.7874015748031497,
          "duration": 0.11029399999999967
        },
        {
          "name": "B3",
          "midi": 59,
          "time": 18.639685999999962,
          "velocity": 0.7874015748031497,
          "duration": 0.11029399999999967
        },
        {
          "name": "G#4",
          "midi": 68,
          "time": 18.74997999999996,
          "velocity": 0.7874015748031497,
          "duration": 0.11029399999999967
        },
        {
          "name": "B3",
          "midi": 59,
          "time": 18.86027399999996,
          "velocity": 0.7874015748031497,
          "duration": 0.11029399999999967
        },
        {
          "name": "F#4",
          "midi": 66,
          "time": 18.97056799999996,
          "velocity": 0.7874015748031497,
          "duration": 0.11029399999999967
        },
        {
          "name": "B3",
          "midi": 59,
          "time": 19.08086199999996,
          "velocity": 0.7874015748031497,
          "duration": 0.11029399999999967
        },
        {
          "name": "G#4",
          "midi": 68,
          "time": 19.19115599999996,
          "velocity": 0.7874015748031497,
          "duration": 0.11029399999999967
        },
        {
          "name": "B3",
          "midi": 59,
          "time": 19.30144999999996,
          "velocity": 0.7874015748031497,
          "duration": 0.11029399999999967
        },
        {
          "name": "E4",
          "midi": 64,
          "time": 19.41174399999996,
          "velocity": 0.7874015748031497,
          "duration": 0.11029399999999967
        },
        {
          "name": "B3",
          "midi": 59,
          "time": 19.52203799999996,
          "velocity": 0.7874015748031497,
          "duration": 0.11029399999999967
        },
        {
          "name": "F#4",
          "midi": 66,
          "time": 19.63233199999996,
          "velocity": 0.7874015748031497,
          "duration": 0.11029399999999967
        },
        {
          "name": "B3",
          "midi": 59,
          "time": 19.74262599999996,
          "velocity": 0.7874015748031497,
          "duration": 0.11029399999999967
        },
        {
          "name": "D#4",
          "midi": 63,
          "time": 19.85291999999996,
          "velocity": 0.7874015748031497,
          "duration": 0.11029399999999967
        },
        {
          "name": "B3",
          "midi": 59,
          "time": 19.963213999999958,
          "velocity": 0.7874015748031497,
          "duration": 0.11029399999999967
        },
        {
          "name": "E4",
          "midi": 64,
          "time": 20.073507999999958,
          "velocity": 0.7874015748031497,
          "duration": 0.11029399999999967
        },
        {
          "name": "B3",
          "midi": 59,
          "time": 20.183801999999957,
          "velocity": 0.7874015748031497,
          "duration": 0.11029399999999967
        },
        {
          "name": "D#4",
          "midi": 63,
          "time": 20.294095999999957,
          "velocity": 0.7874015748031497,
          "duration": 0.11029399999999967
        },
        {
          "name": "B3",
          "midi": 59,
          "time": 20.404389999999957,
          "velocity": 0.7874015748031497,
          "duration": 0.11029399999999967
        },
        {
          "name": "E4",
          "midi": 64,
          "time": 20.514683999999956,
          "velocity": 0.7874015748031497,
          "duration": 0.11029399999999967
        },
        {
          "name": "B3",
          "midi": 59,
          "time": 20.624977999999956,
          "velocity": 0.7874015748031497,
          "duration": 0.11029399999999967
        },
        {
          "name": "D#4",
          "midi": 63,
          "time": 20.735271999999956,
          "velocity": 0.7874015748031497,
          "duration": 0.11029399999999967
        },
        {
          "name": "B3",
          "midi": 59,
          "time": 20.845565999999955,
          "velocity": 0.7874015748031497,
          "duration": 0.11029399999999967
        },
        {
          "name": "E4",
          "midi": 64,
          "time": 20.955859999999955,
          "velocity": 0.7874015748031497,
          "duration": 0.11029399999999967
        },
        {
          "name": "B3",
          "midi": 59,
          "time": 21.066153999999955,
          "velocity": 0.7874015748031497,
          "duration": 0.11029399999999967
        },
        {
          "name": "D#4",
          "midi": 63,
          "time": 21.176447999999954,
          "velocity": 0.7874015748031497,
          "duration": 0.11029399999999967
        },
        {
          "name": "B3",
          "midi": 59,
          "time": 21.286741999999954,
          "velocity": 0.7874015748031497,
          "duration": 0.11029399999999967
        },
        {
          "name": "B4",
          "midi": 71,
          "time": 21.397035999999954,
          "velocity": 0.7874015748031497,
          "duration": 0.11029399999999967
        },
        {
          "name": "B3",
          "midi": 59,
          "time": 21.507329999999953,
          "velocity": 0.7874015748031497,
          "duration": 0.11029399999999967
        },
        {
          "name": "A4",
          "midi": 69,
          "time": 21.617623999999953,
          "velocity": 0.7874015748031497,
          "duration": 0.11029399999999967
        },
        {
          "name": "B3",
          "midi": 59,
          "time": 21.727917999999953,
          "velocity": 0.7874015748031497,
          "duration": 0.11029399999999967
        },
        {
          "name": "G#4",
          "midi": 68,
          "time": 21.838211999999952,
          "velocity": 0.7874015748031497,
          "duration": 0.11029399999999967
        },
        {
          "name": "B3",
          "midi": 59,
          "time": 21.948505999999952,
          "velocity": 0.7874015748031497,
          "duration": 0.11029399999999967
        },
        {
          "name": "A4",
          "midi": 69,
          "time": 22.058799999999952,
          "velocity": 0.7874015748031497,
          "duration": 0.11029399999999967
        },
        {
          "name": "B3",
          "midi": 59,
          "time": 22.16909399999995,
          "velocity": 0.7874015748031497,
          "duration": 0.11029399999999967
        },
        {
          "name": "G#4",
          "midi": 68,
          "time": 22.27938799999995,
          "velocity": 0.7874015748031497,
          "duration": 0.11029399999999967
        },
        {
          "name": "B3",
          "midi": 59,
          "time": 22.38968199999995,
          "velocity": 0.7874015748031497,
          "duration": 0.11029399999999967
        },
        {
          "name": "F#4",
          "midi": 66,
          "time": 22.49997599999995,
          "velocity": 0.7874015748031497,
          "duration": 0.11029399999999967
        },
        {
          "name": "B3",
          "midi": 59,
          "time": 22.61026999999995,
          "velocity": 0.7874015748031497,
          "duration": 0.11029399999999967
        },
        {
          "name": "G#4",
          "midi": 68,
          "time": 22.72056399999995,
          "velocity": 0.7874015748031497,
          "duration": 0.11029399999999967
        },
        {
          "name": "B3",
          "midi": 59,
          "time": 22.83085799999995,
          "velocity": 0.7874015748031497,
          "duration": 0.11029399999999967
        },
        {
          "name": "E4",
          "midi": 64,
          "time": 22.94115199999995,
          "velocity": 0.7874015748031497,
          "duration": 0.11029399999999967
        },
        {
          "name": "B3",
          "midi": 59,
          "time": 23.05144599999995,
          "velocity": 0.7874015748031497,
          "duration": 0.11029399999999967
        },
        {
          "name": "F#4",
          "midi": 66,
          "time": 23.16173999999995,
          "velocity": 0.7874015748031497,
          "duration": 0.11029399999999967
        },
        {
          "name": "B3",
          "midi": 59,
          "time": 23.272033999999948,
          "velocity": 0.7874015748031497,
          "duration": 0.11029399999999967
        },
        {
          "name": "D#4",
          "midi": 63,
          "time": 23.382327999999948,
          "velocity": 0.7874015748031497,
          "duration": 0.11029399999999967
        },
        {
          "name": "B3",
          "midi": 59,
          "time": 23.492621999999947,
          "velocity": 0.7874015748031497,
          "duration": 0.11029399999999967
        },
        {
          "name": "E4",
          "midi": 64,
          "time": 23.602915999999947,
          "velocity": 0.7874015748031497,
          "duration": 0.11029399999999967
        },
        {
          "name": "B3",
          "midi": 59,
          "time": 23.713209999999947,
          "velocity": 0.7874015748031497,
          "duration": 0.11029399999999967
        },
        {
          "name": "D#4",
          "midi": 63,
          "time": 23.823503999999947,
          "velocity": 0.7874015748031497,
          "duration": 0.11029399999999967
        },
        {
          "name": "B3",
          "midi": 59,
          "time": 23.933797999999946,
          "velocity": 0.7874015748031497,
          "duration": 0.11029399999999967
        },
        {
          "name": "E4",
          "midi": 64,
          "time": 24.044091999999946,
          "velocity": 0.7874015748031497,
          "duration": 0.11029399999999967
        },
        {
          "name": "B3",
          "midi": 59,
          "time": 24.154385999999946,
          "velocity": 0.7874015748031497,
          "duration": 0.11029399999999967
        },
        {
          "name": "D#4",
          "midi": 63,
          "time": 24.264679999999945,
          "velocity": 0.7874015748031497,
          "duration": 0.11029399999999967
        },
        {
          "name": "B3",
          "midi": 59,
          "time": 24.374973999999945,
          "velocity": 0.7874015748031497,
          "duration": 0.11029399999999967
        },
        {
          "name": "E4",
          "midi": 64,
          "time": 24.485267999999945,
          "velocity": 0.7874015748031497,
          "duration": 0.11029399999999967
        },
        {
          "name": "B3",
          "midi": 59,
          "time": 24.595561999999944,
          "velocity": 0.7874015748031497,
          "duration": 0.11029399999999967
        },
        {
          "name": "D#4",
          "midi": 63,
          "time": 24.705855999999944,
          "velocity": 0.7874015748031497,
          "duration": 0.11029399999999967
        },
        {
          "name": "B3",
          "midi": 59,
          "time": 24.816149999999944,
          "velocity": 0.7874015748031497,
          "duration": 0.11029399999999967
        },
        {
          "name": "B4",
          "midi": 71,
          "time": 24.926443999999943,
          "velocity": 0.7874015748031497,
          "duration": 0.11029399999999967
        },
        {
          "name": "B3",
          "midi": 59,
          "time": 25.036737999999943,
          "velocity": 0.7874015748031497,
          "duration": 0.11029399999999967
        },
        {
          "name": "A4",
          "midi": 69,
          "time": 25.147031999999943,
          "velocity": 0.7874015748031497,
          "duration": 0.11029399999999967
        },
        {
          "name": "B3",
          "midi": 59,
          "time": 25.257325999999942,
          "velocity": 0.7874015748031497,
          "duration": 0.11029399999999967
        },
        {
          "name": "G#4",
          "midi": 68,
          "time": 25.367619999999942,
          "velocity": 0.7874015748031497,
          "duration": 0.11029399999999967
        },
        {
          "name": "B3",
          "midi": 59,
          "time": 25.47791399999994,
          "velocity": 0.7874015748031497,
          "duration": 0.11029399999999967
        },
        {
          "name": "A4",
          "midi": 69,
          "time": 25.58820799999994,
          "velocity": 0.7874015748031497,
          "duration": 0.11029399999999967
        },
        {
          "name": "B3",
          "midi": 59,
          "time": 25.69850199999994,
          "velocity": 0.7874015748031497,
          "duration": 0.11029399999999967
        },
        {
          "name": "G#4",
          "midi": 68,
          "time": 25.80879599999994,
          "velocity": 0.7874015748031497,
          "duration": 0.11029399999999967
        },
        {
          "name": "B3",
          "midi": 59,
          "time": 25.91908999999994,
          "velocity": 0.7874015748031497,
          "duration": 0.11029399999999967
        },
        {
          "name": "F#4",
          "midi": 66,
          "time": 26.02938399999994,
          "velocity": 0.7874015748031497,
          "duration": 0.11029399999999967
        },
        {
          "name": "B3",
          "midi": 59,
          "time": 26.13967799999994,
          "velocity": 0.7874015748031497,
          "duration": 0.11029399999999967
        },
        {
          "name": "G#4",
          "midi": 68,
          "time": 26.24997199999994,
          "velocity": 0.7874015748031497,
          "duration": 0.11029399999999967
        },
        {
          "name": "B3",
          "midi": 59,
          "time": 26.36026599999994,
          "velocity": 0.7874015748031497,
          "duration": 0.11029399999999967
        },
        {
          "name": "E4",
          "midi": 64,
          "time": 26.47055999999994,
          "velocity": 0.7874015748031497,
          "duration": 0.11029399999999967
        },
        {
          "name": "B3",
          "midi": 59,
          "time": 26.58085399999994,
          "velocity": 0.7874015748031497,
          "duration": 0.11029399999999967
        },
        {
          "name": "F#4",
          "midi": 66,
          "time": 26.691147999999938,
          "velocity": 0.7874015748031497,
          "duration": 0.11029399999999967
        },
        {
          "name": "B3",
          "midi": 59,
          "time": 26.801441999999938,
          "velocity": 0.7874015748031497,
          "duration": 0.11029399999999967
        },
        {
          "name": "D#4",
          "midi": 63,
          "time": 26.911735999999937,
          "velocity": 0.7874015748031497,
          "duration": 0.11029399999999967
        },
        {
          "name": "B3",
          "midi": 59,
          "time": 27.022029999999937,
          "velocity": 0.7874015748031497,
          "duration": 0.11029399999999967
        },
        {
          "name": "E4",
          "midi": 64,
          "time": 27.132323999999937,
          "velocity": 0.7874015748031497,
          "duration": 0.11029399999999967
        },
        {
          "name": "B3",
          "midi": 59,
          "time": 27.242617999999936,
          "velocity": 0.7874015748031497,
          "duration": 0.11029399999999967
        },
        {
          "name": "D#4",
          "midi": 63,
          "time": 27.352911999999936,
          "velocity": 0.7874015748031497,
          "duration": 0.11029399999999967
        },
        {
          "name": "B3",
          "midi": 59,
          "time": 27.463205999999936,
          "velocity": 0.7874015748031497,
          "duration": 0.11029399999999967
        },
        {
          "name": "E4",
          "midi": 64,
          "time": 27.573499999999935,
          "velocity": 0.7874015748031497,
          "duration": 0.11029399999999967
        },
        {
          "name": "B3",
          "midi": 59,
          "time": 27.683793999999935,
          "velocity": 0.7874015748031497,
          "duration": 0.11029399999999967
        },
        {
          "name": "D#4",
          "midi": 63,
          "time": 27.794087999999935,
          "velocity": 0.7874015748031497,
          "duration": 0.11029399999999967
        },
        {
          "name": "B3",
          "midi": 59,
          "time": 27.904381999999934,
          "velocity": 0.7874015748031497,
          "duration": 0.11029399999999967
        },
        {
          "name": "E4",
          "midi": 64,
          "time": 28.014675999999934,
          "velocity": 0.7874015748031497,
          "duration": 0.11029399999999967
        },
        {
          "name": "B3",
          "midi": 59,
          "time": 28.124969999999934,
          "velocity": 0.7874015748031497,
          "duration": 0.11029399999999967
        },
        {
          "name": "D#4",
          "midi": 63,
          "time": 28.235263999999933,
          "velocity": 0.7874015748031497,
          "duration": 0.11029399999999967
        },
        {
          "name": "B3",
          "midi": 59,
          "time": 28.345557999999933,
          "velocity": 0.7874015748031497,
          "duration": 0.11029399999999967
        },
        {
          "name": "B4",
          "midi": 71,
          "time": 28.455851999999933,
          "velocity": 0.7874015748031497,
          "duration": 0.11029399999999967
        },
        {
          "name": "B1",
          "midi": 35,
          "time": 28.455851999999933,
          "velocity": 0.7874015748031497,
          "duration": 0.11029399999999967
        },
        {
          "name": "B3",
          "midi": 59,
          "time": 28.566145999999932,
          "velocity": 0.7874015748031497,
          "duration": 0.11029399999999967
        },
        {
          "name": "A4",
          "midi": 69,
          "time": 28.676439999999932,
          "velocity": 0.7874015748031497,
          "duration": 0.11029399999999967
        },
        {
          "name": "B3",
          "midi": 59,
          "time": 28.78673399999993,
          "velocity": 0.7874015748031497,
          "duration": 0.11029399999999967
        },
        {
          "name": "G#4",
          "midi": 68,
          "time": 28.89702799999993,
          "velocity": 0.7874015748031497,
          "duration": 0.11029399999999967
        },
        {
          "name": "B1",
          "midi": 35,
          "time": 28.89702799999993,
          "velocity": 0.7874015748031497,
          "duration": 0.11029399999999967
        },
        {
          "name": "B3",
          "midi": 59,
          "time": 29.00732199999993,
          "velocity": 0.7874015748031497,
          "duration": 0.11029399999999967
        },
        {
          "name": "A4",
          "midi": 69,
          "time": 29.11761599999993,
          "velocity": 0.7874015748031497,
          "duration": 0.11029399999999967
        },
        {
          "name": "B3",
          "midi": 59,
          "time": 29.22790999999993,
          "velocity": 0.7874015748031497,
          "duration": 0.11029399999999967
        },
        {
          "name": "G#4",
          "midi": 68,
          "time": 29.33820399999993,
          "velocity": 0.7874015748031497,
          "duration": 0.11029399999999967
        },
        {
          "name": "B3",
          "midi": 59,
          "time": 29.44849799999993,
          "velocity": 0.7874015748031497,
          "duration": 0.11029399999999967
        },
        {
          "name": "F#4",
          "midi": 66,
          "time": 29.55879199999993,
          "velocity": 0.7874015748031497,
          "duration": 0.11029399999999967
        },
        {
          "name": "B3",
          "midi": 59,
          "time": 29.66908599999993,
          "velocity": 0.7874015748031497,
          "duration": 0.11029399999999967
        },
        {
          "name": "G#4",
          "midi": 68,
          "time": 29.77937999999993,
          "velocity": 0.7874015748031497,
          "duration": 0.11029399999999967
        },
        {
          "name": "B3",
          "midi": 59,
          "time": 29.88967399999993,
          "velocity": 0.7874015748031497,
          "duration": 0.11029399999999967
        },
        {
          "name": "E4",
          "midi": 64,
          "time": 29.999967999999928,
          "velocity": 0.7874015748031497,
          "duration": 0.11029399999999967
        },
        {
          "name": "B3",
          "midi": 59,
          "time": 30.110261999999928,
          "velocity": 0.7874015748031497,
          "duration": 0.11029399999999967
        },
        {
          "name": "F#4",
          "midi": 66,
          "time": 30.220555999999927,
          "velocity": 0.7874015748031497,
          "duration": 0.11029399999999967
        },
        {
          "name": "B3",
          "midi": 59,
          "time": 30.330849999999927,
          "velocity": 0.7874015748031497,
          "duration": 0.11029399999999967
        },
        {
          "name": "D#4",
          "midi": 63,
          "time": 30.441143999999927,
          "velocity": 0.7874015748031497,
          "duration": 0.11029399999999967
        },
        {
          "name": "B3",
          "midi": 59,
          "time": 30.551437999999926,
          "velocity": 0.7874015748031497,
          "duration": 0.11029399999999967
        },
        {
          "name": "E4",
          "midi": 64,
          "time": 30.661731999999926,
          "velocity": 0.7874015748031497,
          "duration": 0.11029399999999967
        },
        {
          "name": "B3",
          "midi": 59,
          "time": 30.772025999999926,
          "velocity": 0.7874015748031497,
          "duration": 0.11029399999999967
        },
        {
          "name": "D#4",
          "midi": 63,
          "time": 30.882319999999925,
          "velocity": 0.7874015748031497,
          "duration": 0.11029399999999967
        },
        {
          "name": "B3",
          "midi": 59,
          "time": 30.992613999999925,
          "velocity": 0.7874015748031497,
          "duration": 0.11029399999999967
        },
        {
          "name": "E4",
          "midi": 64,
          "time": 31.102907999999925,
          "velocity": 0.7874015748031497,
          "duration": 0.11029399999999967
        },
        {
          "name": "B3",
          "midi": 59,
          "time": 31.213201999999924,
          "velocity": 0.7874015748031497,
          "duration": 0.11029399999999967
        },
        {
          "name": "D#4",
          "midi": 63,
          "time": 31.323495999999924,
          "velocity": 0.7874015748031497,
          "duration": 0.11029399999999967
        },
        {
          "name": "B3",
          "midi": 59,
          "time": 31.433789999999924,
          "velocity": 0.7874015748031497,
          "duration": 0.11029399999999967
        },
        {
          "name": "E4",
          "midi": 64,
          "time": 31.544083999999923,
          "velocity": 0.7874015748031497,
          "duration": 0.11029399999999967
        },
        {
          "name": "B3",
          "midi": 59,
          "time": 31.654377999999923,
          "velocity": 0.7874015748031497,
          "duration": 0.11029399999999967
        },
        {
          "name": "D#4",
          "midi": 63,
          "time": 31.764671999999923,
          "velocity": 0.7874015748031497,
          "duration": 0.11029399999999967
        },
        {
          "name": "B3",
          "midi": 59,
          "time": 31.874965999999922,
          "velocity": 0.7874015748031497,
          "duration": 0.11029399999999967
        },
        {
          "name": "B4",
          "midi": 71,
          "time": 31.985259999999922,
          "velocity": 0.7874015748031497,
          "duration": 0.11029399999999967
        },
        {
          "name": "B1",
          "midi": 35,
          "time": 31.985259999999922,
          "velocity": 0.7874015748031497,
          "duration": 0.11029399999999967
        },
        {
          "name": "B3",
          "midi": 59,
          "time": 32.09555399999992,
          "velocity": 0.7874015748031497,
          "duration": 0.11029400000000322
        },
        {
          "name": "A4",
          "midi": 69,
          "time": 32.205847999999925,
          "velocity": 0.7874015748031497,
          "duration": 0.11029400000000322
        },
        {
          "name": "B3",
          "midi": 59,
          "time": 32.31614199999993,
          "velocity": 0.7874015748031497,
          "duration": 0.11029400000000322
        },
        {
          "name": "G#4",
          "midi": 68,
          "time": 32.42643599999993,
          "velocity": 0.7874015748031497,
          "duration": 0.11029400000000322
        },
        {
          "name": "B1",
          "midi": 35,
          "time": 32.42643599999993,
          "velocity": 0.7874015748031497,
          "duration": 0.11029400000000322
        },
        {
          "name": "B3",
          "midi": 59,
          "time": 32.536729999999935,
          "velocity": 0.7874015748031497,
          "duration": 0.11029400000000322
        },
        {
          "name": "A4",
          "midi": 69,
          "time": 32.64702399999994,
          "velocity": 0.7874015748031497,
          "duration": 0.11029400000000322
        },
        {
          "name": "B3",
          "midi": 59,
          "time": 32.75731799999994,
          "velocity": 0.7874015748031497,
          "duration": 0.11029400000000322
        },
        {
          "name": "G#4",
          "midi": 68,
          "time": 32.867611999999944,
          "velocity": 0.7874015748031497,
          "duration": 0.11029400000000322
        },
        {
          "name": "B3",
          "midi": 59,
          "time": 32.97790599999995,
          "velocity": 0.7874015748031497,
          "duration": 0.11029400000000322
        },
        {
          "name": "F#4",
          "midi": 66,
          "time": 33.08819999999995,
          "velocity": 0.7874015748031497,
          "duration": 0.11029400000000322
        },
        {
          "name": "B3",
          "midi": 59,
          "time": 33.198493999999954,
          "velocity": 0.7874015748031497,
          "duration": 0.11029400000000322
        },
        {
          "name": "G#4",
          "midi": 68,
          "time": 33.30878799999996,
          "velocity": 0.7874015748031497,
          "duration": 0.11029400000000322
        },
        {
          "name": "B3",
          "midi": 59,
          "time": 33.41908199999996,
          "velocity": 0.7874015748031497,
          "duration": 0.11029400000000322
        },
        {
          "name": "E4",
          "midi": 64,
          "time": 33.529375999999964,
          "velocity": 0.7874015748031497,
          "duration": 0.11029400000000322
        },
        {
          "name": "B3",
          "midi": 59,
          "time": 33.63966999999997,
          "velocity": 0.7874015748031497,
          "duration": 0.11029400000000322
        },
        {
          "name": "F#4",
          "midi": 66,
          "time": 33.74996399999997,
          "velocity": 0.7874015748031497,
          "duration": 0.11029400000000322
        },
        {
          "name": "B3",
          "midi": 59,
          "time": 33.86025799999997,
          "velocity": 0.7874015748031497,
          "duration": 0.11029400000000322
        },
        {
          "name": "D#4",
          "midi": 63,
          "time": 33.97055199999998,
          "velocity": 0.7874015748031497,
          "duration": 0.11029400000000322
        },
        {
          "name": "B3",
          "midi": 59,
          "time": 34.08084599999998,
          "velocity": 0.7874015748031497,
          "duration": 0.11029400000000322
        },
        {
          "name": "E4",
          "midi": 64,
          "time": 34.19113999999998,
          "velocity": 0.7874015748031497,
          "duration": 0.11029400000000322
        },
        {
          "name": "B3",
          "midi": 59,
          "time": 34.301433999999986,
          "velocity": 0.7874015748031497,
          "duration": 0.11029400000000322
        },
        {
          "name": "D#4",
          "midi": 63,
          "time": 34.41172799999999,
          "velocity": 0.7874015748031497,
          "duration": 0.11029400000000322
        },
        {
          "name": "B3",
          "midi": 59,
          "time": 34.52202199999999,
          "velocity": 0.7874015748031497,
          "duration": 0.11029400000000322
        },
        {
          "name": "E4",
          "midi": 64,
          "time": 34.632315999999996,
          "velocity": 0.7874015748031497,
          "duration": 0.11029400000000322
        },
        {
          "name": "B3",
          "midi": 59,
          "time": 34.74261,
          "velocity": 0.7874015748031497,
          "duration": 0.11029400000000322
        },
        {
          "name": "D#4",
          "midi": 63,
          "time": 34.852904,
          "velocity": 0.7874015748031497,
          "duration": 0.11029400000000322
        },
        {
          "name": "B3",
          "midi": 59,
          "time": 34.963198000000006,
          "velocity": 0.7874015748031497,
          "duration": 0.11029400000000322
        },
        {
          "name": "E4",
          "midi": 64,
          "time": 35.07349200000001,
          "velocity": 0.7874015748031497,
          "duration": 0.11029400000000322
        },
        {
          "name": "B3",
          "midi": 59,
          "time": 35.18378600000001,
          "velocity": 0.7874015748031497,
          "duration": 0.11029400000000322
        },
        {
          "name": "D#4",
          "midi": 63,
          "time": 35.294080000000015,
          "velocity": 0.7874015748031497,
          "duration": 0.11029400000000322
        },
        {
          "name": "B3",
          "midi": 59,
          "time": 35.40437400000002,
          "velocity": 0.7874015748031497,
          "duration": 0.11029400000000322
        },
        {
          "name": "B4",
          "midi": 71,
          "time": 35.51466800000002,
          "velocity": 0.7874015748031497,
          "duration": 0.11029400000000322
        },
        {
          "name": "B1",
          "midi": 35,
          "time": 35.51466800000002,
          "velocity": 0.7874015748031497,
          "duration": 0.11029400000000322
        },
        {
          "name": "B3",
          "midi": 59,
          "time": 35.624962000000025,
          "velocity": 0.7874015748031497,
          "duration": 0.11029400000000322
        },
        {
          "name": "A4",
          "midi": 69,
          "time": 35.73525600000003,
          "velocity": 0.7874015748031497,
          "duration": 0.11029400000000322
        },
        {
          "name": "B3",
          "midi": 59,
          "time": 35.84555000000003,
          "velocity": 0.7874015748031497,
          "duration": 0.11029400000000322
        },
        {
          "name": "G#4",
          "midi": 68,
          "time": 35.955844000000035,
          "velocity": 0.7874015748031497,
          "duration": 0.11029400000000322
        },
        {
          "name": "B1",
          "midi": 35,
          "time": 35.955844000000035,
          "velocity": 0.7874015748031497,
          "duration": 0.11029400000000322
        },
        {
          "name": "B3",
          "midi": 59,
          "time": 36.06613800000004,
          "velocity": 0.7874015748031497,
          "duration": 0.11029400000000322
        },
        {
          "name": "A4",
          "midi": 69,
          "time": 36.17643200000004,
          "velocity": 0.7874015748031497,
          "duration": 0.11029400000000322
        },
        {
          "name": "B3",
          "midi": 59,
          "time": 36.286726000000044,
          "velocity": 0.7874015748031497,
          "duration": 0.11029400000000322
        },
        {
          "name": "G#4",
          "midi": 68,
          "time": 36.39702000000005,
          "velocity": 0.7874015748031497,
          "duration": 0.11029400000000322
        },
        {
          "name": "B3",
          "midi": 59,
          "time": 36.50731400000005,
          "velocity": 0.7874015748031497,
          "duration": 0.11029400000000322
        },
        {
          "name": "F#4",
          "midi": 66,
          "time": 36.617608000000054,
          "velocity": 0.7874015748031497,
          "duration": 0.11029400000000322
        },
        {
          "name": "B3",
          "midi": 59,
          "time": 36.72790200000006,
          "velocity": 0.7874015748031497,
          "duration": 0.11029400000000322
        },
        {
          "name": "G#4",
          "midi": 68,
          "time": 36.83819600000006,
          "velocity": 0.7874015748031497,
          "duration": 0.11029400000000322
        },
        {
          "name": "B3",
          "midi": 59,
          "time": 36.948490000000064,
          "velocity": 0.7874015748031497,
          "duration": 0.11029400000000322
        },
        {
          "name": "E4",
          "midi": 64,
          "time": 37.05878400000007,
          "velocity": 0.7874015748031497,
          "duration": 0.11029400000000322
        },
        {
          "name": "B3",
          "midi": 59,
          "time": 37.16907800000007,
          "velocity": 0.7874015748031497,
          "duration": 0.11029400000000322
        },
        {
          "name": "F#4",
          "midi": 66,
          "time": 37.27937200000007,
          "velocity": 0.7874015748031497,
          "duration": 0.11029400000000322
        },
        {
          "name": "B3",
          "midi": 59,
          "time": 37.38966600000008,
          "velocity": 0.7874015748031497,
          "duration": 0.11029400000000322
        },
        {
          "name": "D#4",
          "midi": 63,
          "time": 37.49996000000008,
          "velocity": 0.7874015748031497,
          "duration": 0.11029400000000322
        },
        {
          "name": "B3",
          "midi": 59,
          "time": 37.61025400000008,
          "velocity": 0.7874015748031497,
          "duration": 0.11029400000000322
        },
        {
          "name": "E4",
          "midi": 64,
          "time": 37.720548000000086,
          "velocity": 0.7874015748031497,
          "duration": 0.11029400000000322
        },
        {
          "name": "B3",
          "midi": 59,
          "time": 37.83084200000009,
          "velocity": 0.7874015748031497,
          "duration": 0.11029400000000322
        },
        {
          "name": "D#4",
          "midi": 63,
          "time": 37.94113600000009,
          "velocity": 0.7874015748031497,
          "duration": 0.11029400000000322
        },
        {
          "name": "B3",
          "midi": 59,
          "time": 38.051430000000096,
          "velocity": 0.7874015748031497,
          "duration": 0.11029400000000322
        },
        {
          "name": "E4",
          "midi": 64,
          "time": 38.1617240000001,
          "velocity": 0.7874015748031497,
          "duration": 0.11029400000000322
        },
        {
          "name": "B3",
          "midi": 59,
          "time": 38.2720180000001,
          "velocity": 0.7874015748031497,
          "duration": 0.11029400000000322
        },
        {
          "name": "D#4",
          "midi": 63,
          "time": 38.382312000000105,
          "velocity": 0.7874015748031497,
          "duration": 0.11029400000000322
        },
        {
          "name": "B3",
          "midi": 59,
          "time": 38.49260600000011,
          "velocity": 0.7874015748031497,
          "duration": 0.11029400000000322
        },
        {
          "name": "E4",
          "midi": 64,
          "time": 38.60290000000011,
          "velocity": 0.7874015748031497,
          "duration": 0.11029400000000322
        },
        {
          "name": "B3",
          "midi": 59,
          "time": 38.713194000000115,
          "velocity": 0.7874015748031497,
          "duration": 0.11029400000000322
        },
        {
          "name": "D#4",
          "midi": 63,
          "time": 38.82348800000012,
          "velocity": 0.7874015748031497,
          "duration": 0.11029400000000322
        },
        {
          "name": "B3",
          "midi": 59,
          "time": 38.93378200000012,
          "velocity": 0.7874015748031497,
          "duration": 0.11029400000000322
        },
        {
          "name": "B4",
          "midi": 71,
          "time": 39.044076000000125,
          "velocity": 0.7874015748031497,
          "duration": 0.11029400000000322
        },
        {
          "name": "B1",
          "midi": 35,
          "time": 39.044076000000125,
          "velocity": 0.7874015748031497,
          "duration": 0.11029400000000322
        },
        {
          "name": "B3",
          "midi": 59,
          "time": 39.15437000000013,
          "velocity": 0.7874015748031497,
          "duration": 0.11029400000000322
        },
        {
          "name": "A4",
          "midi": 69,
          "time": 39.26466400000013,
          "velocity": 0.7874015748031497,
          "duration": 0.11029400000000322
        },
        {
          "name": "B3",
          "midi": 59,
          "time": 39.374958000000134,
          "velocity": 0.7874015748031497,
          "duration": 0.11029400000000322
        },
        {
          "name": "G#4",
          "midi": 68,
          "time": 39.48525200000014,
          "velocity": 0.7874015748031497,
          "duration": 0.11029400000000322
        },
        {
          "name": "B1",
          "midi": 35,
          "time": 39.48525200000014,
          "velocity": 0.7874015748031497,
          "duration": 0.11029400000000322
        },
        {
          "name": "B3",
          "midi": 59,
          "time": 39.59554600000014,
          "velocity": 0.7874015748031497,
          "duration": 0.11029400000000322
        },
        {
          "name": "A4",
          "midi": 69,
          "time": 39.705840000000144,
          "velocity": 0.7874015748031497,
          "duration": 0.11029400000000322
        },
        {
          "name": "B3",
          "midi": 59,
          "time": 39.81613400000015,
          "velocity": 0.7874015748031497,
          "duration": 0.11029400000000322
        },
        {
          "name": "G#4",
          "midi": 68,
          "time": 39.92642800000015,
          "velocity": 0.7874015748031497,
          "duration": 0.11029400000000322
        },
        {
          "name": "B3",
          "midi": 59,
          "time": 40.036722000000154,
          "velocity": 0.7874015748031497,
          "duration": 0.11029400000000322
        },
        {
          "name": "F#4",
          "midi": 66,
          "time": 40.14701600000016,
          "velocity": 0.7874015748031497,
          "duration": 0.11029400000000322
        },
        {
          "name": "B3",
          "midi": 59,
          "time": 40.25731000000016,
          "velocity": 0.7874015748031497,
          "duration": 0.11029400000000322
        },
        {
          "name": "G#4",
          "midi": 68,
          "time": 40.36760400000016,
          "velocity": 0.7874015748031497,
          "duration": 0.11029400000000322
        },
        {
          "name": "B3",
          "midi": 59,
          "time": 40.47789800000017,
          "velocity": 0.7874015748031497,
          "duration": 0.11029400000000322
        },
        {
          "name": "E4",
          "midi": 64,
          "time": 40.58819200000017,
          "velocity": 0.7874015748031497,
          "duration": 0.11029400000000322
        },
        {
          "name": "B3",
          "midi": 59,
          "time": 40.69848600000017,
          "velocity": 0.7874015748031497,
          "duration": 0.11029400000000322
        },
        {
          "name": "F#4",
          "midi": 66,
          "time": 40.808780000000176,
          "velocity": 0.7874015748031497,
          "duration": 0.11029400000000322
        },
        {
          "name": "B3",
          "midi": 59,
          "time": 40.91907400000018,
          "velocity": 0.7874015748031497,
          "duration": 0.11029400000000322
        },
        {
          "name": "D#4",
          "midi": 63,
          "time": 41.02936800000018,
          "velocity": 0.7874015748031497,
          "duration": 0.11029400000000322
        },
        {
          "name": "B3",
          "midi": 59,
          "time": 41.139662000000186,
          "velocity": 0.7874015748031497,
          "duration": 0.11029400000000322
        },
        {
          "name": "E4",
          "midi": 64,
          "time": 41.24995600000019,
          "velocity": 0.7874015748031497,
          "duration": 0.11029400000000322
        },
        {
          "name": "B3",
          "midi": 59,
          "time": 41.36025000000019,
          "velocity": 0.7874015748031497,
          "duration": 0.11029400000000322
        },
        {
          "name": "D#4",
          "midi": 63,
          "time": 41.470544000000196,
          "velocity": 0.7874015748031497,
          "duration": 0.11029400000000322
        },
        {
          "name": "B3",
          "midi": 59,
          "time": 41.5808380000002,
          "velocity": 0.7874015748031497,
          "duration": 0.11029400000000322
        },
        {
          "name": "E4",
          "midi": 64,
          "time": 41.6911320000002,
          "velocity": 0.7874015748031497,
          "duration": 0.11029400000000322
        },
        {
          "name": "B3",
          "midi": 59,
          "time": 41.801426000000205,
          "velocity": 0.7874015748031497,
          "duration": 0.11029400000000322
        },
        {
          "name": "D#4",
          "midi": 63,
          "time": 41.91172000000021,
          "velocity": 0.7874015748031497,
          "duration": 0.11029400000000322
        },
        {
          "name": "B3",
          "midi": 59,
          "time": 42.02201400000021,
          "velocity": 0.7874015748031497,
          "duration": 0.11029400000000322
        },
        {
          "name": "E4",
          "midi": 64,
          "time": 42.132308000000215,
          "velocity": 0.7874015748031497,
          "duration": 0.11029400000000322
        },
        {
          "name": "B3",
          "midi": 59,
          "time": 42.24260200000022,
          "velocity": 0.7874015748031497,
          "duration": 0.11029400000000322
        },
        {
          "name": "D#4",
          "midi": 63,
          "time": 42.35289600000022,
          "velocity": 0.7874015748031497,
          "duration": 0.11029400000000322
        },
        {
          "name": "B3",
          "midi": 59,
          "time": 42.463190000000225,
          "velocity": 0.7874015748031497,
          "duration": 0.11029400000000322
        },
        {
          "name": "B4",
          "midi": 71,
          "time": 42.57348400000023,
          "velocity": 0.7874015748031497,
          "duration": 0.11029400000000322
        },
        {
          "name": "B1",
          "midi": 35,
          "time": 42.57348400000023,
          "velocity": 0.7874015748031497,
          "duration": 0.11029400000000322
        },
        {
          "name": "B3",
          "midi": 59,
          "time": 42.68377800000023,
          "velocity": 0.7874015748031497,
          "duration": 0.11029400000000322
        },
        {
          "name": "A4",
          "midi": 69,
          "time": 42.794072000000234,
          "velocity": 0.7874015748031497,
          "duration": 0.11029400000000322
        },
        {
          "name": "B3",
          "midi": 59,
          "time": 42.90436600000024,
          "velocity": 0.7874015748031497,
          "duration": 0.11029400000000322
        },
        {
          "name": "G#4",
          "midi": 68,
          "time": 43.01466000000024,
          "velocity": 0.7874015748031497,
          "duration": 0.11029400000000322
        },
        {
          "name": "B1",
          "midi": 35,
          "time": 43.01466000000024,
          "velocity": 0.7874015748031497,
          "duration": 0.11029400000000322
        },
        {
          "name": "B3",
          "midi": 59,
          "time": 43.124954000000244,
          "velocity": 0.7874015748031497,
          "duration": 0.11029400000000322
        },
        {
          "name": "A4",
          "midi": 69,
          "time": 43.23524800000025,
          "velocity": 0.7874015748031497,
          "duration": 0.11029400000000322
        },
        {
          "name": "B3",
          "midi": 59,
          "time": 43.34554200000025,
          "velocity": 0.7874015748031497,
          "duration": 0.11029400000000322
        },
        {
          "name": "G#4",
          "midi": 68,
          "time": 43.455836000000254,
          "velocity": 0.7874015748031497,
          "duration": 0.11029400000000322
        },
        {
          "name": "B3",
          "midi": 59,
          "time": 43.56613000000026,
          "velocity": 0.7874015748031497,
          "duration": 0.11029400000000322
        },
        {
          "name": "F#4",
          "midi": 66,
          "time": 43.67642400000026,
          "velocity": 0.7874015748031497,
          "duration": 0.11029400000000322
        },
        {
          "name": "B3",
          "midi": 59,
          "time": 43.78671800000026,
          "velocity": 0.7874015748031497,
          "duration": 0.11029400000000322
        },
        {
          "name": "G#4",
          "midi": 68,
          "time": 43.89701200000027,
          "velocity": 0.7874015748031497,
          "duration": 0.11029400000000322
        },
        {
          "name": "B3",
          "midi": 59,
          "time": 44.00730600000027,
          "velocity": 0.7874015748031497,
          "duration": 0.11029400000000322
        },
        {
          "name": "E4",
          "midi": 64,
          "time": 44.11760000000027,
          "velocity": 0.7874015748031497,
          "duration": 0.11029400000000322
        },
        {
          "name": "B3",
          "midi": 59,
          "time": 44.227894000000276,
          "velocity": 0.7874015748031497,
          "duration": 0.11029400000000322
        },
        {
          "name": "F#4",
          "midi": 66,
          "time": 44.33818800000028,
          "velocity": 0.7874015748031497,
          "duration": 0.11029400000000322
        },
        {
          "name": "B3",
          "midi": 59,
          "time": 44.44848200000028,
          "velocity": 0.7874015748031497,
          "duration": 0.11029400000000322
        },
        {
          "name": "D#4",
          "midi": 63,
          "time": 44.558776000000286,
          "velocity": 0.7874015748031497,
          "duration": 0.11029400000000322
        },
        {
          "name": "B3",
          "midi": 59,
          "time": 44.66907000000029,
          "velocity": 0.7874015748031497,
          "duration": 0.11029400000000322
        },
        {
          "name": "E4",
          "midi": 64,
          "time": 44.77936400000029,
          "velocity": 0.7874015748031497,
          "duration": 0.11029400000000322
        },
        {
          "name": "B3",
          "midi": 59,
          "time": 44.889658000000296,
          "velocity": 0.7874015748031497,
          "duration": 0.11029400000000322
        },
        {
          "name": "D#4",
          "midi": 63,
          "time": 44.9999520000003,
          "velocity": 0.7874015748031497,
          "duration": 0.11029400000000322
        },
        {
          "name": "B3",
          "midi": 59,
          "time": 45.1102460000003,
          "velocity": 0.7874015748031497,
          "duration": 0.11029400000000322
        },
        {
          "name": "E4",
          "midi": 64,
          "time": 45.220540000000305,
          "velocity": 0.7874015748031497,
          "duration": 0.11029400000000322
        },
        {
          "name": "B3",
          "midi": 59,
          "time": 45.33083400000031,
          "velocity": 0.7874015748031497,
          "duration": 0.11029400000000322
        },
        {
          "name": "D#4",
          "midi": 63,
          "time": 45.44112800000031,
          "velocity": 0.7874015748031497,
          "duration": 0.11029400000000322
        },
        {
          "name": "B3",
          "midi": 59,
          "time": 45.551422000000315,
          "velocity": 0.7874015748031497,
          "duration": 0.11029400000000322
        },
        {
          "name": "E4",
          "midi": 64,
          "time": 45.66171600000032,
          "velocity": 0.7874015748031497,
          "duration": 0.11029400000000322
        },
        {
          "name": "B3",
          "midi": 59,
          "time": 45.77201000000032,
          "velocity": 0.7874015748031497,
          "duration": 0.11029400000000322
        },
        {
          "name": "D#4",
          "midi": 63,
          "time": 45.882304000000325,
          "velocity": 0.7874015748031497,
          "duration": 0.11029400000000322
        },
        {
          "name": "B3",
          "midi": 59,
          "time": 45.99259800000033,
          "velocity": 0.7874015748031497,
          "duration": 0.11029400000000322
        },
        {
          "name": "B4",
          "midi": 71,
          "time": 46.10289200000033,
          "velocity": 0.7874015748031497,
          "duration": 0.11029400000000322
        },
        {
          "name": "B1",
          "midi": 35,
          "time": 46.10289200000033,
          "velocity": 0.7874015748031497,
          "duration": 0.11029400000000322
        },
        {
          "name": "B3",
          "midi": 59,
          "time": 46.213186000000334,
          "velocity": 0.7874015748031497,
          "duration": 0.11029400000000322
        },
        {
          "name": "A4",
          "midi": 69,
          "time": 46.32348000000034,
          "velocity": 0.7874015748031497,
          "duration": 0.11029400000000322
        },
        {
          "name": "B3",
          "midi": 59,
          "time": 46.43377400000034,
          "velocity": 0.7874015748031497,
          "duration": 0.11029400000000322
        },
        {
          "name": "G#4",
          "midi": 68,
          "time": 46.544068000000344,
          "velocity": 0.7874015748031497,
          "duration": 0.11029400000000322
        },
        {
          "name": "B1",
          "midi": 35,
          "time": 46.544068000000344,
          "velocity": 0.7874015748031497,
          "duration": 0.11029400000000322
        },
        {
          "name": "B3",
          "midi": 59,
          "time": 46.65436200000035,
          "velocity": 0.7874015748031497,
          "duration": 0.11029400000000322
        },
        {
          "name": "A4",
          "midi": 69,
          "time": 46.76465600000035,
          "velocity": 0.7874015748031497,
          "duration": 0.11029400000000322
        },
        {
          "name": "B3",
          "midi": 59,
          "time": 46.874950000000354,
          "velocity": 0.7874015748031497,
          "duration": 0.11029400000000322
        },
        {
          "name": "G#4",
          "midi": 68,
          "time": 46.98524400000036,
          "velocity": 0.7874015748031497,
          "duration": 0.11029400000000322
        },
        {
          "name": "B3",
          "midi": 59,
          "time": 47.09553800000036,
          "velocity": 0.7874015748031497,
          "duration": 0.11029400000000322
        },
        {
          "name": "F#4",
          "midi": 66,
          "time": 47.20583200000036,
          "velocity": 0.7874015748031497,
          "duration": 0.11029400000000322
        },
        {
          "name": "B3",
          "midi": 59,
          "time": 47.31612600000037,
          "velocity": 0.7874015748031497,
          "duration": 0.11029400000000322
        },
        {
          "name": "G#4",
          "midi": 68,
          "time": 47.42642000000037,
          "velocity": 0.7874015748031497,
          "duration": 0.11029400000000322
        },
        {
          "name": "B3",
          "midi": 59,
          "time": 47.53671400000037,
          "velocity": 0.7874015748031497,
          "duration": 0.11029400000000322
        },
        {
          "name": "E4",
          "midi": 64,
          "time": 47.647008000000376,
          "velocity": 0.7874015748031497,
          "duration": 0.11029400000000322
        },
        {
          "name": "B3",
          "midi": 59,
          "time": 47.75730200000038,
          "velocity": 0.7874015748031497,
          "duration": 0.11029400000000322
        },
        {
          "name": "F#4",
          "midi": 66,
          "time": 47.86759600000038,
          "velocity": 0.7874015748031497,
          "duration": 0.11029400000000322
        },
        {
          "name": "B3",
          "midi": 59,
          "time": 47.977890000000386,
          "velocity": 0.7874015748031497,
          "duration": 0.11029400000000322
        },
        {
          "name": "D#4",
          "midi": 63,
          "time": 48.08818400000039,
          "velocity": 0.7874015748031497,
          "duration": 0.11029400000000322
        },
        {
          "name": "B3",
          "midi": 59,
          "time": 48.19847800000039,
          "velocity": 0.7874015748031497,
          "duration": 0.11029400000000322
        },
        {
          "name": "E4",
          "midi": 64,
          "time": 48.308772000000396,
          "velocity": 0.7874015748031497,
          "duration": 0.11029400000000322
        },
        {
          "name": "B3",
          "midi": 59,
          "time": 48.4190660000004,
          "velocity": 0.7874015748031497,
          "duration": 0.11029400000000322
        },
        {
          "name": "D#4",
          "midi": 63,
          "time": 48.5293600000004,
          "velocity": 0.7874015748031497,
          "duration": 0.11029400000000322
        },
        {
          "name": "B3",
          "midi": 59,
          "time": 48.639654000000405,
          "velocity": 0.7874015748031497,
          "duration": 0.11029400000000322
        },
        {
          "name": "E4",
          "midi": 64,
          "time": 48.74994800000041,
          "velocity": 0.7874015748031497,
          "duration": 0.11029400000000322
        },
        {
          "name": "B3",
          "midi": 59,
          "time": 48.86024200000041,
          "velocity": 0.7874015748031497,
          "duration": 0.11029400000000322
        },
        {
          "name": "D#4",
          "midi": 63,
          "time": 48.970536000000415,
          "velocity": 0.7874015748031497,
          "duration": 0.11029400000000322
        },
        {
          "name": "B3",
          "midi": 59,
          "time": 49.08083000000042,
          "velocity": 0.7874015748031497,
          "duration": 0.11029400000000322
        },
        {
          "name": "E4",
          "midi": 64,
          "time": 49.19112400000042,
          "velocity": 0.7874015748031497,
          "duration": 0.11029400000000322
        },
        {
          "name": "B3",
          "midi": 59,
          "time": 49.301418000000425,
          "velocity": 0.7874015748031497,
          "duration": 0.11029400000000322
        },
        {
          "name": "D#4",
          "midi": 63,
          "time": 49.41171200000043,
          "velocity": 0.7874015748031497,
          "duration": 0.11029400000000322
        },
        {
          "name": "B3",
          "midi": 59,
          "time": 49.52200600000043,
          "velocity": 0.7874015748031497,
          "duration": 0.11029400000000322
        },
        {
          "name": "B4",
          "midi": 71,
          "time": 49.632300000000434,
          "velocity": 0.7874015748031497,
          "duration": 0.11029400000000322
        },
        {
          "name": "B1",
          "midi": 35,
          "time": 49.632300000000434,
          "velocity": 0.7874015748031497,
          "duration": 0.11029400000000322
        },
        {
          "name": "B3",
          "midi": 59,
          "time": 49.74259400000044,
          "velocity": 0.7874015748031497,
          "duration": 0.11029400000000322
        },
        {
          "name": "A4",
          "midi": 69,
          "time": 49.85288800000044,
          "velocity": 0.7874015748031497,
          "duration": 0.11029400000000322
        },
        {
          "name": "B3",
          "midi": 59,
          "time": 49.963182000000444,
          "velocity": 0.7874015748031497,
          "duration": 0.11029400000000322
        },
        {
          "name": "G#4",
          "midi": 68,
          "time": 50.07347600000045,
          "velocity": 0.7874015748031497,
          "duration": 0.11029400000000322
        },
        {
          "name": "B1",
          "midi": 35,
          "time": 50.07347600000045,
          "velocity": 0.7874015748031497,
          "duration": 0.11029400000000322
        },
        {
          "name": "B3",
          "midi": 59,
          "time": 50.18377000000045,
          "velocity": 0.7874015748031497,
          "duration": 0.11029400000000322
        },
        {
          "name": "A4",
          "midi": 69,
          "time": 50.29406400000045,
          "velocity": 0.7874015748031497,
          "duration": 0.11029400000000322
        },
        {
          "name": "B3",
          "midi": 59,
          "time": 50.40435800000046,
          "velocity": 0.7874015748031497,
          "duration": 0.11029400000000322
        },
        {
          "name": "G#4",
          "midi": 68,
          "time": 50.51465200000046,
          "velocity": 0.7874015748031497,
          "duration": 0.11029400000000322
        },
        {
          "name": "B3",
          "midi": 59,
          "time": 50.62494600000046,
          "velocity": 0.7874015748031497,
          "duration": 0.11029400000000322
        },
        {
          "name": "F#4",
          "midi": 66,
          "time": 50.735240000000466,
          "velocity": 0.7874015748031497,
          "duration": 0.11029400000000322
        },
        {
          "name": "B3",
          "midi": 59,
          "time": 50.84553400000047,
          "velocity": 0.7874015748031497,
          "duration": 0.11029400000000322
        },
        {
          "name": "G#4",
          "midi": 68,
          "time": 50.95582800000047,
          "velocity": 0.7874015748031497,
          "duration": 0.11029400000000322
        },
        {
          "name": "B3",
          "midi": 59,
          "time": 51.066122000000476,
          "velocity": 0.7874015748031497,
          "duration": 0.11029400000000322
        },
        {
          "name": "E4",
          "midi": 64,
          "time": 51.17641600000048,
          "velocity": 0.7874015748031497,
          "duration": 0.11029400000000322
        },
        {
          "name": "B3",
          "midi": 59,
          "time": 51.28671000000048,
          "velocity": 0.7874015748031497,
          "duration": 0.11029400000000322
        },
        {
          "name": "F#4",
          "midi": 66,
          "time": 51.397004000000486,
          "velocity": 0.7874015748031497,
          "duration": 0.11029400000000322
        },
        {
          "name": "B3",
          "midi": 59,
          "time": 51.50729800000049,
          "velocity": 0.7874015748031497,
          "duration": 0.11029400000000322
        },
        {
          "name": "D#4",
          "midi": 63,
          "time": 51.61759200000049,
          "velocity": 0.7874015748031497,
          "duration": 0.11029400000000322
        },
        {
          "name": "B3",
          "midi": 59,
          "time": 51.727886000000495,
          "velocity": 0.7874015748031497,
          "duration": 0.11029400000000322
        },
        {
          "name": "E4",
          "midi": 64,
          "time": 51.8381800000005,
          "velocity": 0.7874015748031497,
          "duration": 0.11029400000000322
        },
        {
          "name": "B3",
          "midi": 59,
          "time": 51.9484740000005,
          "velocity": 0.7874015748031497,
          "duration": 0.11029400000000322
        },
        {
          "name": "D#4",
          "midi": 63,
          "time": 52.058768000000505,
          "velocity": 0.7874015748031497,
          "duration": 0.11029400000000322
        },
        {
          "name": "B3",
          "midi": 59,
          "time": 52.16906200000051,
          "velocity": 0.7874015748031497,
          "duration": 0.11029400000000322
        },
        {
          "name": "E4",
          "midi": 64,
          "time": 52.27935600000051,
          "velocity": 0.7874015748031497,
          "duration": 0.11029400000000322
        },
        {
          "name": "B3",
          "midi": 59,
          "time": 52.389650000000515,
          "velocity": 0.7874015748031497,
          "duration": 0.11029400000000322
        },
        {
          "name": "D#4",
          "midi": 63,
          "time": 52.49994400000052,
          "velocity": 0.7874015748031497,
          "duration": 0.11029400000000322
        },
        {
          "name": "B3",
          "midi": 59,
          "time": 52.61023800000052,
          "velocity": 0.7874015748031497,
          "duration": 0.11029400000000322
        },
        {
          "name": "E4",
          "midi": 64,
          "time": 52.720532000000524,
          "velocity": 0.7874015748031497,
          "duration": 0.11029400000000322
        },
        {
          "name": "B3",
          "midi": 59,
          "time": 52.83082600000053,
          "velocity": 0.7874015748031497,
          "duration": 0.11029400000000322
        },
        {
          "name": "D#4",
          "midi": 63,
          "time": 52.94112000000053,
          "velocity": 0.7874015748031497,
          "duration": 0.11029400000000322
        },
        {
          "name": "B3",
          "midi": 59,
          "time": 53.051414000000534,
          "velocity": 0.7874015748031497,
          "duration": 0.11029400000000322
        },
        {
          "name": "B4",
          "midi": 71,
          "time": 53.16170800000054,
          "velocity": 0.7874015748031497,
          "duration": 0.11029400000000322
        },
        {
          "name": "B1",
          "midi": 35,
          "time": 53.16170800000054,
          "velocity": 0.7874015748031497,
          "duration": 0.11029400000000322
        },
        {
          "name": "B3",
          "midi": 59,
          "time": 53.27200200000054,
          "velocity": 0.7874015748031497,
          "duration": 0.11029400000000322
        },
        {
          "name": "A4",
          "midi": 69,
          "time": 53.382296000000544,
          "velocity": 0.7874015748031497,
          "duration": 0.11029400000000322
        },
        {
          "name": "B3",
          "midi": 59,
          "time": 53.49259000000055,
          "velocity": 0.7874015748031497,
          "duration": 0.11029400000000322
        },
        {
          "name": "G#4",
          "midi": 68,
          "time": 53.60288400000055,
          "velocity": 0.7874015748031497,
          "duration": 0.11029400000000322
        },
        {
          "name": "B1",
          "midi": 35,
          "time": 53.60288400000055,
          "velocity": 0.7874015748031497,
          "duration": 0.11029400000000322
        },
        {
          "name": "B3",
          "midi": 59,
          "time": 53.71317800000055,
          "velocity": 0.7874015748031497,
          "duration": 0.11029400000000322
        },
        {
          "name": "A4",
          "midi": 69,
          "time": 53.82347200000056,
          "velocity": 0.7874015748031497,
          "duration": 0.11029400000000322
        },
        {
          "name": "B3",
          "midi": 59,
          "time": 53.93376600000056,
          "velocity": 0.7874015748031497,
          "duration": 0.11029400000000322
        },
        {
          "name": "G#4",
          "midi": 68,
          "time": 54.04406000000056,
          "velocity": 0.7874015748031497,
          "duration": 0.11029400000000322
        },
        {
          "name": "B3",
          "midi": 59,
          "time": 54.154354000000566,
          "velocity": 0.7874015748031497,
          "duration": 0.11029400000000322
        },
        {
          "name": "F#4",
          "midi": 66,
          "time": 54.26464800000057,
          "velocity": 0.7874015748031497,
          "duration": 0.11029400000000322
        },
        {
          "name": "B3",
          "midi": 59,
          "time": 54.37494200000057,
          "velocity": 0.7874015748031497,
          "duration": 0.11029400000000322
        },
        {
          "name": "G#4",
          "midi": 68,
          "time": 54.485236000000576,
          "velocity": 0.7874015748031497,
          "duration": 0.11029400000000322
        },
        {
          "name": "B3",
          "midi": 59,
          "time": 54.59553000000058,
          "velocity": 0.7874015748031497,
          "duration": 0.11029400000000322
        },
        {
          "name": "E4",
          "midi": 64,
          "time": 54.70582400000058,
          "velocity": 0.7874015748031497,
          "duration": 0.11029400000000322
        },
        {
          "name": "B3",
          "midi": 59,
          "time": 54.816118000000586,
          "velocity": 0.7874015748031497,
          "duration": 0.11029400000000322
        },
        {
          "name": "F#4",
          "midi": 66,
          "time": 54.92641200000059,
          "velocity": 0.7874015748031497,
          "duration": 0.11029400000000322
        },
        {
          "name": "B3",
          "midi": 59,
          "time": 55.03670600000059,
          "velocity": 0.7874015748031497,
          "duration": 0.11029400000000322
        },
        {
          "name": "D#4",
          "midi": 63,
          "time": 55.147000000000595,
          "velocity": 0.7874015748031497,
          "duration": 0.11029400000000322
        },
        {
          "name": "B3",
          "midi": 59,
          "time": 55.2572940000006,
          "velocity": 0.7874015748031497,
          "duration": 0.11029400000000322
        },
        {
          "name": "E4",
          "midi": 64,
          "time": 55.3675880000006,
          "velocity": 0.7874015748031497,
          "duration": 0.11029400000000322
        },
        {
          "name": "B3",
          "midi": 59,
          "time": 55.477882000000605,
          "velocity": 0.7874015748031497,
          "duration": 0.11029400000000322
        },
        {
          "name": "D#4",
          "midi": 63,
          "time": 55.58817600000061,
          "velocity": 0.7874015748031497,
          "duration": 0.11029400000000322
        },
        {
          "name": "B3",
          "midi": 59,
          "time": 55.69847000000061,
          "velocity": 0.7874015748031497,
          "duration": 0.11029400000000322
        },
        {
          "name": "E4",
          "midi": 64,
          "time": 55.808764000000615,
          "velocity": 0.7874015748031497,
          "duration": 0.11029400000000322
        },
        {
          "name": "B3",
          "midi": 59,
          "time": 55.91905800000062,
          "velocity": 0.7874015748031497,
          "duration": 0.11029400000000322
        },
        {
          "name": "D#4",
          "midi": 63,
          "time": 56.02935200000062,
          "velocity": 0.7874015748031497,
          "duration": 0.11029400000000322
        },
        {
          "name": "B3",
          "midi": 59,
          "time": 56.139646000000624,
          "velocity": 0.7874015748031497,
          "duration": 0.11029400000000322
        },
        {
          "name": "E4",
          "midi": 64,
          "time": 56.24994000000063,
          "velocity": 0.7874015748031497,
          "duration": 0.11029400000000322
        },
        {
          "name": "B3",
          "midi": 59,
          "time": 56.36023400000063,
          "velocity": 0.7874015748031497,
          "duration": 0.11029400000000322
        },
        {
          "name": "D#4",
          "midi": 63,
          "time": 56.470528000000634,
          "velocity": 0.7874015748031497,
          "duration": 0.11029400000000322
        },
        {
          "name": "B3",
          "midi": 59,
          "time": 56.58082200000064,
          "velocity": 0.7874015748031497,
          "duration": 0.11029400000000322
        },
        {
          "name": "B4",
          "midi": 71,
          "time": 56.69111600000064,
          "velocity": 0.7874015748031497,
          "duration": 0.11029400000000322
        },
        {
          "name": "B1",
          "midi": 35,
          "time": 56.69111600000064,
          "velocity": 0.7874015748031497,
          "duration": 0.11029400000000322
        },
        {
          "name": "B3",
          "midi": 59,
          "time": 56.801410000000644,
          "velocity": 0.7874015748031497,
          "duration": 0.11029400000000322
        },
        {
          "name": "A4",
          "midi": 69,
          "time": 56.91170400000065,
          "velocity": 0.7874015748031497,
          "duration": 0.11029400000000322
        },
        {
          "name": "B3",
          "midi": 59,
          "time": 57.02199800000065,
          "velocity": 0.7874015748031497,
          "duration": 0.11029400000000322
        },
        {
          "name": "G#4",
          "midi": 68,
          "time": 57.13229200000065,
          "velocity": 0.7874015748031497,
          "duration": 0.11029400000000322
        },
        {
          "name": "B1",
          "midi": 35,
          "time": 57.13229200000065,
          "velocity": 0.7874015748031497,
          "duration": 0.11029400000000322
        },
        {
          "name": "B3",
          "midi": 59,
          "time": 57.24258600000066,
          "velocity": 0.7874015748031497,
          "duration": 0.11029400000000322
        },
        {
          "name": "A4",
          "midi": 69,
          "time": 57.35288000000066,
          "velocity": 0.7874015748031497,
          "duration": 0.11029400000000322
        },
        {
          "name": "B3",
          "midi": 59,
          "time": 57.46317400000066,
          "velocity": 0.7874015748031497,
          "duration": 0.11029400000000322
        },
        {
          "name": "G#4",
          "midi": 68,
          "time": 57.573468000000666,
          "velocity": 0.7874015748031497,
          "duration": 0.11029400000000322
        },
        {
          "name": "B3",
          "midi": 59,
          "time": 57.68376200000067,
          "velocity": 0.7874015748031497,
          "duration": 0.11029400000000322
        },
        {
          "name": "F#4",
          "midi": 66,
          "time": 57.79405600000067,
          "velocity": 0.7874015748031497,
          "duration": 0.11029400000000322
        },
        {
          "name": "B3",
          "midi": 59,
          "time": 57.904350000000676,
          "velocity": 0.7874015748031497,
          "duration": 0.11029400000000322
        },
        {
          "name": "G#4",
          "midi": 68,
          "time": 58.01464400000068,
          "velocity": 0.7874015748031497,
          "duration": 0.11029400000000322
        },
        {
          "name": "B3",
          "midi": 59,
          "time": 58.12493800000068,
          "velocity": 0.7874015748031497,
          "duration": 0.11029400000000322
        },
        {
          "name": "E4",
          "midi": 64,
          "time": 58.235232000000686,
          "velocity": 0.7874015748031497,
          "duration": 0.11029400000000322
        },
        {
          "name": "B3",
          "midi": 59,
          "time": 58.34552600000069,
          "velocity": 0.7874015748031497,
          "duration": 0.11029400000000322
        },
        {
          "name": "F#4",
          "midi": 66,
          "time": 58.45582000000069,
          "velocity": 0.7874015748031497,
          "duration": 0.11029400000000322
        },
        {
          "name": "B3",
          "midi": 59,
          "time": 58.566114000000695,
          "velocity": 0.7874015748031497,
          "duration": 0.11029400000000322
        },
        {
          "name": "D#4",
          "midi": 63,
          "time": 58.6764080000007,
          "velocity": 0.7874015748031497,
          "duration": 0.11029400000000322
        },
        {
          "name": "B3",
          "midi": 59,
          "time": 58.7867020000007,
          "velocity": 0.7874015748031497,
          "duration": 0.11029400000000322
        },
        {
          "name": "E4",
          "midi": 64,
          "time": 58.896996000000705,
          "velocity": 0.7874015748031497,
          "duration": 0.11029400000000322
        },
        {
          "name": "B3",
          "midi": 59,
          "time": 59.00729000000071,
          "velocity": 0.7874015748031497,
          "duration": 0.11029400000000322
        },
        {
          "name": "D#4",
          "midi": 63,
          "time": 59.11758400000071,
          "velocity": 0.7874015748031497,
          "duration": 0.11029400000000322
        },
        {
          "name": "B3",
          "midi": 59,
          "time": 59.227878000000715,
          "velocity": 0.7874015748031497,
          "duration": 0.11029400000000322
        },
        {
          "name": "E4",
          "midi": 64,
          "time": 59.33817200000072,
          "velocity": 0.7874015748031497,
          "duration": 0.11029400000000322
        },
        {
          "name": "B3",
          "midi": 59,
          "time": 59.44846600000072,
          "velocity": 0.7874015748031497,
          "duration": 0.11029400000000322
        },
        {
          "name": "D#4",
          "midi": 63,
          "time": 59.558760000000724,
          "velocity": 0.7874015748031497,
          "duration": 0.11029400000000322
        },
        {
          "name": "B3",
          "midi": 59,
          "time": 59.66905400000073,
          "velocity": 0.7874015748031497,
          "duration": 0.11029400000000322
        },
        {
          "name": "E4",
          "midi": 64,
          "time": 59.77934800000073,
          "velocity": 0.7874015748031497,
          "duration": 0.11029400000000322
        },
        {
          "name": "B3",
          "midi": 59,
          "time": 59.889642000000734,
          "velocity": 0.7874015748031497,
          "duration": 0.11029400000000322
        },
        {
          "name": "D#4",
          "midi": 63,
          "time": 59.99993600000074,
          "velocity": 0.7874015748031497,
          "duration": 0.11029400000000322
        },
        {
          "name": "B3",
          "midi": 59,
          "time": 60.11023000000074,
          "velocity": 0.7874015748031497,
          "duration": 0.11029400000000322
        },
        {
          "name": "B4",
          "midi": 71,
          "time": 60.220524000000744,
          "velocity": 0.7874015748031497,
          "duration": 0.11029400000000322
        },
        {
          "name": "B1",
          "midi": 35,
          "time": 60.220524000000744,
          "velocity": 0.7874015748031497,
          "duration": 0.11029400000000322
        },
        {
          "name": "B3",
          "midi": 59,
          "time": 60.33081800000075,
          "velocity": 0.7874015748031497,
          "duration": 0.11029400000000322
        },
        {
          "name": "A4",
          "midi": 69,
          "time": 60.44111200000075,
          "velocity": 0.7874015748031497,
          "duration": 0.11029400000000322
        },
        {
          "name": "B3",
          "midi": 59,
          "time": 60.55140600000075,
          "velocity": 0.7874015748031497,
          "duration": 0.11029400000000322
        },
        {
          "name": "G#4",
          "midi": 68,
          "time": 60.66170000000076,
          "velocity": 0.7874015748031497,
          "duration": 0.11029400000000322
        },
        {
          "name": "B1",
          "midi": 35,
          "time": 60.66170000000076,
          "velocity": 0.7874015748031497,
          "duration": 0.11029400000000322
        },
        {
          "name": "B3",
          "midi": 59,
          "time": 60.77199400000076,
          "velocity": 0.7874015748031497,
          "duration": 0.11029400000000322
        },
        {
          "name": "A4",
          "midi": 69,
          "time": 60.88228800000076,
          "velocity": 0.7874015748031497,
          "duration": 0.11029400000000322
        },
        {
          "name": "B3",
          "midi": 59,
          "time": 60.992582000000766,
          "velocity": 0.7874015748031497,
          "duration": 0.11029400000000322
        },
        {
          "name": "G#4",
          "midi": 68,
          "time": 61.10287600000077,
          "velocity": 0.7874015748031497,
          "duration": 0.11029400000000322
        },
        {
          "name": "B3",
          "midi": 59,
          "time": 61.21317000000077,
          "velocity": 0.7874015748031497,
          "duration": 0.11029400000000322
        },
        {
          "name": "F#4",
          "midi": 66,
          "time": 61.323464000000776,
          "velocity": 0.7874015748031497,
          "duration": 0.11029400000000322
        },
        {
          "name": "B3",
          "midi": 59,
          "time": 61.43375800000078,
          "velocity": 0.7874015748031497,
          "duration": 0.11029400000000322
        },
        {
          "name": "G#4",
          "midi": 68,
          "time": 61.54405200000078,
          "velocity": 0.7874015748031497,
          "duration": 0.11029400000000322
        },
        {
          "name": "B3",
          "midi": 59,
          "time": 61.654346000000785,
          "velocity": 0.7874015748031497,
          "duration": 0.11029400000000322
        },
        {
          "name": "E4",
          "midi": 64,
          "time": 61.76464000000079,
          "velocity": 0.7874015748031497,
          "duration": 0.11029400000000322
        },
        {
          "name": "B3",
          "midi": 59,
          "time": 61.87493400000079,
          "velocity": 0.7874015748031497,
          "duration": 0.11029400000000322
        },
        {
          "name": "F#4",
          "midi": 66,
          "time": 61.985228000000795,
          "velocity": 0.7874015748031497,
          "duration": 0.11029400000000322
        },
        {
          "name": "B3",
          "midi": 59,
          "time": 62.0955220000008,
          "velocity": 0.7874015748031497,
          "duration": 0.11029400000000322
        },
        {
          "name": "D#4",
          "midi": 63,
          "time": 62.2058160000008,
          "velocity": 0.7874015748031497,
          "duration": 0.11029400000000322
        },
        {
          "name": "B3",
          "midi": 59,
          "time": 62.316110000000805,
          "velocity": 0.7874015748031497,
          "duration": 0.11029400000000322
        },
        {
          "name": "E4",
          "midi": 64,
          "time": 62.42640400000081,
          "velocity": 0.7874015748031497,
          "duration": 0.11029400000000322
        },
        {
          "name": "B3",
          "midi": 59,
          "time": 62.53669800000081,
          "velocity": 0.7874015748031497,
          "duration": 0.11029400000000322
        },
        {
          "name": "D#4",
          "midi": 63,
          "time": 62.646992000000814,
          "velocity": 0.7874015748031497,
          "duration": 0.11029400000000322
        },
        {
          "name": "B3",
          "midi": 59,
          "time": 62.75728600000082,
          "velocity": 0.7874015748031497,
          "duration": 0.11029400000000322
        },
        {
          "name": "E4",
          "midi": 64,
          "time": 62.86758000000082,
          "velocity": 0.7874015748031497,
          "duration": 0.11029400000000322
        },
        {
          "name": "B3",
          "midi": 59,
          "time": 62.977874000000824,
          "velocity": 0.7874015748031497,
          "duration": 0.11029400000000322
        },
        {
          "name": "B4",
          "midi": 71,
          "time": 63.08816800000083,
          "velocity": 0.7874015748031497,
          "duration": 0.11029400000000322
        },
        {
          "name": "B5",
          "midi": 83,
          "time": 63.08816800000083,
          "velocity": 0.7874015748031497,
          "duration": 0.11029400000000322
        },
        {
          "name": "F#5",
          "midi": 78,
          "time": 63.08816800000083,
          "velocity": 0.7874015748031497,
          "duration": 0.11029400000000322
        },
        {
          "name": "B3",
          "midi": 59,
          "time": 63.19846200000083,
          "velocity": 0.7874015748031497,
          "duration": 0.11029400000000322
        },
        {
          "name": "B4",
          "midi": 71,
          "time": 63.308756000000834,
          "velocity": 0.7874015748031497,
          "duration": 0.11029400000000322
        },
        {
          "name": "F#5",
          "midi": 78,
          "time": 63.308756000000834,
          "velocity": 0.7874015748031497,
          "duration": 0.11029400000000322
        },
        {
          "name": "B5",
          "midi": 83,
          "time": 63.308756000000834,
          "velocity": 0.7874015748031497,
          "duration": 0.11029400000000322
        },
        {
          "name": "B3",
          "midi": 59,
          "time": 63.308756000000834,
          "velocity": 0.7874015748031497,
          "duration": 0.11029400000000322
        },
        {
          "name": "D5",
          "midi": 74,
          "time": 63.52934400000084,
          "velocity": 0.7874015748031497,
          "duration": 0.11029400000000322
        },
        {
          "name": "F#5",
          "midi": 78,
          "time": 63.52934400000084,
          "velocity": 0.7874015748031497,
          "duration": 0.11029400000000322
        },
        {
          "name": "D6",
          "midi": 86,
          "time": 63.52934400000084,
          "velocity": 0.7874015748031497,
          "duration": 0.11029400000000322
        },
        {
          "name": "B3",
          "midi": 59,
          "time": 63.52934400000084,
          "velocity": 0.7874015748031497,
          "duration": 0.11029400000000322
        },
        {
          "name": "B3",
          "midi": 59,
          "time": 63.74993200000085,
          "velocity": 0.7874015748031497,
          "duration": 0.11029400000000322
        },
        {
          "name": "B3",
          "midi": 59,
          "time": 63.97052000000085,
          "velocity": 0.7874015748031497,
          "duration": 0.11029400000000322
        },
        {
          "name": "B3",
          "midi": 59,
          "time": 64.19110800000085,
          "velocity": 0.7874015748031497,
          "duration": 0.11029399999999612
        },
        {
          "name": "B3",
          "midi": 59,
          "time": 64.41169600000084,
          "velocity": 0.7874015748031497,
          "duration": 0.11029399999999612
        },
        {
          "name": "B3",
          "midi": 59,
          "time": 64.63228400000084,
          "velocity": 0.7874015748031497,
          "duration": 0.11029399999999612
        },
        {
          "name": "B3",
          "midi": 59,
          "time": 64.85287200000083,
          "velocity": 0.7874015748031497,
          "duration": 0.11029399999999612
        },
        {
          "name": "B4",
          "midi": 71,
          "time": 64.85287200000083,
          "velocity": 0.7874015748031497,
          "duration": 0.11029399999999612
        },
        {
          "name": "F#5",
          "midi": 78,
          "time": 64.85287200000083,
          "velocity": 0.7874015748031497,
          "duration": 0.11029399999999612
        },
        {
          "name": "B5",
          "midi": 83,
          "time": 64.85287200000083,
          "velocity": 0.7874015748031497,
          "duration": 0.11029399999999612
        },
        {
          "name": "B3",
          "midi": 59,
          "time": 65.07346000000082,
          "velocity": 0.7874015748031497,
          "duration": 0.11029399999999612
        },
        {
          "name": "B4",
          "midi": 71,
          "time": 65.07346000000082,
          "velocity": 0.7874015748031497,
          "duration": 0.11029399999999612
        },
        {
          "name": "F#5",
          "midi": 78,
          "time": 65.07346000000082,
          "velocity": 0.7874015748031497,
          "duration": 0.11029399999999612
        },
        {
          "name": "B5",
          "midi": 83,
          "time": 65.07346000000082,
          "velocity": 0.7874015748031497,
          "duration": 0.11029399999999612
        },
        {
          "name": "B3",
          "midi": 59,
          "time": 65.29404800000081,
          "velocity": 0.7874015748031497,
          "duration": 0.11029399999999612
        },
        {
          "name": "D5",
          "midi": 74,
          "time": 65.29404800000081,
          "velocity": 0.7874015748031497,
          "duration": 0.11029399999999612
        },
        {
          "name": "F#5",
          "midi": 78,
          "time": 65.29404800000081,
          "velocity": 0.7874015748031497,
          "duration": 0.11029399999999612
        },
        {
          "name": "D6",
          "midi": 86,
          "time": 65.29404800000081,
          "velocity": 0.7874015748031497,
          "duration": 0.11029399999999612
        },
        {
          "name": "B3",
          "midi": 59,
          "time": 65.5146360000008,
          "velocity": 0.7874015748031497,
          "duration": 0.11029399999999612
        },
        {
          "name": "B4",
          "midi": 71,
          "time": 65.5146360000008,
          "velocity": 0.7874015748031497,
          "duration": 0.11029399999999612
        },
        {
          "name": "F#5",
          "midi": 78,
          "time": 65.5146360000008,
          "velocity": 0.7874015748031497,
          "duration": 0.11029399999999612
        },
        {
          "name": "B5",
          "midi": 83,
          "time": 65.5146360000008,
          "velocity": 0.7874015748031497,
          "duration": 0.11029399999999612
        },
        {
          "name": "B3",
          "midi": 59,
          "time": 65.7352240000008,
          "velocity": 0.7874015748031497,
          "duration": 0.11029399999999612
        },
        {
          "name": "B4",
          "midi": 71,
          "time": 65.7352240000008,
          "velocity": 0.7874015748031497,
          "duration": 0.11029399999999612
        },
        {
          "name": "F#5",
          "midi": 78,
          "time": 65.7352240000008,
          "velocity": 0.7874015748031497,
          "duration": 0.11029399999999612
        },
        {
          "name": "B5",
          "midi": 83,
          "time": 65.7352240000008,
          "velocity": 0.7874015748031497,
          "duration": 0.11029399999999612
        },
        {
          "name": "B3",
          "midi": 59,
          "time": 65.95581200000079,
          "velocity": 0.7874015748031497,
          "duration": 0.11029399999999612
        },
        {
          "name": "B4",
          "midi": 71,
          "time": 65.95581200000079,
          "velocity": 0.7874015748031497,
          "duration": 0.11029399999999612
        },
        {
          "name": "F#5",
          "midi": 78,
          "time": 65.95581200000079,
          "velocity": 0.7874015748031497,
          "duration": 0.11029399999999612
        },
        {
          "name": "B5",
          "midi": 83,
          "time": 65.95581200000079,
          "velocity": 0.7874015748031497,
          "duration": 0.11029399999999612
        },
        {
          "name": "D5",
          "midi": 74,
          "time": 66.17640000000078,
          "velocity": 0.7874015748031497,
          "duration": 0.11029399999999612
        },
        {
          "name": "F#5",
          "midi": 78,
          "time": 66.17640000000078,
          "velocity": 0.7874015748031497,
          "duration": 0.11029399999999612
        },
        {
          "name": "D6",
          "midi": 86,
          "time": 66.17640000000078,
          "velocity": 0.7874015748031497,
          "duration": 0.11029399999999612
        },
        {
          "name": "B3",
          "midi": 59,
          "time": 66.17640000000078,
          "velocity": 0.7874015748031497,
          "duration": 0.11029399999999612
        },
        {
          "name": "B4",
          "midi": 71,
          "time": 66.39698800000077,
          "velocity": 0.7874015748031497,
          "duration": 0.11029399999999612
        },
        {
          "name": "F#5",
          "midi": 78,
          "time": 66.39698800000077,
          "velocity": 0.7874015748031497,
          "duration": 0.11029399999999612
        },
        {
          "name": "B5",
          "midi": 83,
          "time": 66.39698800000077,
          "velocity": 0.7874015748031497,
          "duration": 0.11029399999999612
        },
        {
          "name": "B3",
          "midi": 59,
          "time": 66.39698800000077,
          "velocity": 0.7874015748031497,
          "duration": 0.11029399999999612
        },
        {
          "name": "B4",
          "midi": 71,
          "time": 66.61757600000077,
          "velocity": 0.7874015748031497,
          "duration": 0.11029399999999612
        },
        {
          "name": "F#5",
          "midi": 78,
          "time": 66.61757600000077,
          "velocity": 0.7874015748031497,
          "duration": 0.11029399999999612
        },
        {
          "name": "B5",
          "midi": 83,
          "time": 66.61757600000077,
          "velocity": 0.7874015748031497,
          "duration": 0.11029399999999612
        },
        {
          "name": "B3",
          "midi": 59,
          "time": 66.61757600000077,
          "velocity": 0.7874015748031497,
          "duration": 0.11029399999999612
        },
        {
          "name": "B3",
          "midi": 59,
          "time": 66.83816400000076,
          "velocity": 0.7874015748031497,
          "duration": 0.11029399999999612
        },
        {
          "name": "B4",
          "midi": 71,
          "time": 66.83816400000076,
          "velocity": 0.7874015748031497,
          "duration": 0.11029399999999612
        },
        {
          "name": "F#5",
          "midi": 78,
          "time": 66.83816400000076,
          "velocity": 0.7874015748031497,
          "duration": 0.11029399999999612
        },
        {
          "name": "B5",
          "midi": 83,
          "time": 66.83816400000076,
          "velocity": 0.7874015748031497,
          "duration": 0.11029399999999612
        },
        {
          "name": "A4",
          "midi": 69,
          "time": 67.05875200000075,
          "velocity": 0.7874015748031497,
          "duration": 0.22058799999999223
        },
        {
          "name": "D5",
          "midi": 74,
          "time": 67.05875200000075,
          "velocity": 0.7874015748031497,
          "duration": 0.22058799999999223
        },
        {
          "name": "A5",
          "midi": 81,
          "time": 67.05875200000075,
          "velocity": 0.7874015748031497,
          "duration": 0.22058799999999223
        },
        {
          "name": "B3",
          "midi": 59,
          "time": 67.05875200000075,
          "velocity": 0.7874015748031497,
          "duration": 0.11029399999999612
        },
        {
          "name": "B3",
          "midi": 59,
          "time": 67.27934000000074,
          "velocity": 0.7874015748031497,
          "duration": 0.11029399999999612
        },
        {
          "name": "B4",
          "midi": 71,
          "time": 67.49992800000074,
          "velocity": 0.7874015748031497,
          "duration": 0.11029399999999612
        },
        {
          "name": "F#5",
          "midi": 78,
          "time": 67.49992800000074,
          "velocity": 0.7874015748031497,
          "duration": 0.11029399999999612
        },
        {
          "name": "B5",
          "midi": 83,
          "time": 67.49992800000074,
          "velocity": 0.7874015748031497,
          "duration": 0.11029399999999612
        },
        {
          "name": "B3",
          "midi": 59,
          "time": 67.49992800000074,
          "velocity": 0.7874015748031497,
          "duration": 0.11029399999999612
        },
        {
          "name": "B3",
          "midi": 59,
          "time": 67.72051600000073,
          "velocity": 0.7874015748031497,
          "duration": 0.11029399999999612
        },
        {
          "name": "B3",
          "midi": 59,
          "time": 67.94110400000072,
          "velocity": 0.7874015748031497,
          "duration": 0.11029399999999612
        },
        {
          "name": "B3",
          "midi": 59,
          "time": 68.16169200000071,
          "velocity": 0.7874015748031497,
          "duration": 0.11029399999999612
        },
        {
          "name": "B3",
          "midi": 59,
          "time": 68.3822800000007,
          "velocity": 0.7874015748031497,
          "duration": 0.11029399999999612
        },
        {
          "name": "B3",
          "midi": 59,
          "time": 68.6028680000007,
          "velocity": 0.7874015748031497,
          "duration": 0.11029399999999612
        },
        {
          "name": "B3",
          "midi": 59,
          "time": 68.82345600000069,
          "velocity": 0.7874015748031497,
          "duration": 0.11029399999999612
        },
        {
          "name": "B6",
          "midi": 95,
          "time": 69.04404400000068,
          "velocity": 0.7874015748031497,
          "duration": 0.22058800000000645
        },
        {
          "name": "B5",
          "midi": 83,
          "time": 69.04404400000068,
          "velocity": 0.7874015748031497,
          "duration": 0.22058800000000645
        },
        {
          "name": "F#6",
          "midi": 90,
          "time": 69.04404400000068,
          "velocity": 0.7874015748031497,
          "duration": 0.22058800000000645
        },
        {
          "name": "B2",
          "midi": 47,
          "time": 69.04404400000068,
          "velocity": 0.7874015748031497,
          "duration": 0.22058800000000645
        },
        {
          "name": "B1",
          "midi": 35,
          "time": 69.04404400000068,
          "velocity": 0.7874015748031497,
          "duration": 0.22058800000000645
        },
        {
          "name": "F#6",
          "midi": 90,
          "time": 69.4852200000007,
          "velocity": 0.7874015748031497,
          "duration": 0.22058800000000645
        },
        {
          "name": "B6",
          "midi": 95,
          "time": 69.4852200000007,
          "velocity": 0.7874015748031497,
          "duration": 0.22058800000000645
        },
        {
          "name": "B5",
          "midi": 83,
          "time": 69.4852200000007,
          "velocity": 0.7874015748031497,
          "duration": 0.22058800000000645
        },
        {
          "name": "B2",
          "midi": 47,
          "time": 69.4852200000007,
          "velocity": 0.7874015748031497,
          "duration": 0.22058800000000645
        },
        {
          "name": "B1",
          "midi": 35,
          "time": 69.4852200000007,
          "velocity": 0.7874015748031497,
          "duration": 0.22058800000000645
        },
        {
          "name": "B3",
          "midi": 59,
          "time": 69.92639600000071,
          "velocity": 0.7874015748031497,
          "duration": 0.11029399999999612
        },
        {
          "name": "B3",
          "midi": 59,
          "time": 70.1469840000007,
          "velocity": 0.7874015748031497,
          "duration": 0.11029399999999612
        },
        {
          "name": "B4",
          "midi": 71,
          "time": 70.1469840000007,
          "velocity": 0.7874015748031497,
          "duration": 0.11029399999999612
        },
        {
          "name": "F#5",
          "midi": 78,
          "time": 70.1469840000007,
          "velocity": 0.7874015748031497,
          "duration": 0.11029399999999612
        },
        {
          "name": "B5",
          "midi": 83,
          "time": 70.1469840000007,
          "velocity": 0.7874015748031497,
          "duration": 0.11029399999999612
        },
        {
          "name": "B3",
          "midi": 59,
          "time": 70.36757200000069,
          "velocity": 0.7874015748031497,
          "duration": 0.11029399999999612
        },
        {
          "name": "B4",
          "midi": 71,
          "time": 70.36757200000069,
          "velocity": 0.7874015748031497,
          "duration": 0.11029399999999612
        },
        {
          "name": "F#5",
          "midi": 78,
          "time": 70.36757200000069,
          "velocity": 0.7874015748031497,
          "duration": 0.11029399999999612
        },
        {
          "name": "B5",
          "midi": 83,
          "time": 70.36757200000069,
          "velocity": 0.7874015748031497,
          "duration": 0.11029399999999612
        },
        {
          "name": "B3",
          "midi": 59,
          "time": 70.58816000000068,
          "velocity": 0.7874015748031497,
          "duration": 0.11029399999999612
        },
        {
          "name": "D5",
          "midi": 74,
          "time": 70.58816000000068,
          "velocity": 0.7874015748031497,
          "duration": 0.11029399999999612
        },
        {
          "name": "F#5",
          "midi": 78,
          "time": 70.58816000000068,
          "velocity": 0.7874015748031497,
          "duration": 0.11029399999999612
        },
        {
          "name": "D6",
          "midi": 86,
          "time": 70.58816000000068,
          "velocity": 0.7874015748031497,
          "duration": 0.11029399999999612
        },
        {
          "name": "B3",
          "midi": 59,
          "time": 70.80874800000068,
          "velocity": 0.7874015748031497,
          "duration": 0.11029399999999612
        },
        {
          "name": "B3",
          "midi": 59,
          "time": 71.02933600000067,
          "velocity": 0.7874015748031497,
          "duration": 0.11029399999999612
        },
        {
          "name": "B3",
          "midi": 59,
          "time": 71.24992400000066,
          "velocity": 0.7874015748031497,
          "duration": 0.11029399999999612
        },
        {
          "name": "B3",
          "midi": 59,
          "time": 71.47051200000065,
          "velocity": 0.7874015748031497,
          "duration": 0.11029399999999612
        },
        {
          "name": "B3",
          "midi": 59,
          "time": 71.69110000000065,
          "velocity": 0.7874015748031497,
          "duration": 0.11029399999999612
        },
        {
          "name": "B3",
          "midi": 59,
          "time": 71.91168800000064,
          "velocity": 0.7874015748031497,
          "duration": 0.11029399999999612
        },
        {
          "name": "B4",
          "midi": 71,
          "time": 71.91168800000064,
          "velocity": 0.7874015748031497,
          "duration": 0.11029399999999612
        },
        {
          "name": "F#5",
          "midi": 78,
          "time": 71.91168800000064,
          "velocity": 0.7874015748031497,
          "duration": 0.11029399999999612
        },
        {
          "name": "B5",
          "midi": 83,
          "time": 71.91168800000064,
          "velocity": 0.7874015748031497,
          "duration": 0.11029399999999612
        },
        {
          "name": "B3",
          "midi": 59,
          "time": 72.13227600000063,
          "velocity": 0.7874015748031497,
          "duration": 0.11029399999999612
        },
        {
          "name": "B4",
          "midi": 71,
          "time": 72.13227600000063,
          "velocity": 0.7874015748031497,
          "duration": 0.11029399999999612
        },
        {
          "name": "F#5",
          "midi": 78,
          "time": 72.13227600000063,
          "velocity": 0.7874015748031497,
          "duration": 0.11029399999999612
        },
        {
          "name": "B5",
          "midi": 83,
          "time": 72.13227600000063,
          "velocity": 0.7874015748031497,
          "duration": 0.11029399999999612
        },
        {
          "name": "B3",
          "midi": 59,
          "time": 72.35286400000062,
          "velocity": 0.7874015748031497,
          "duration": 0.11029399999999612
        },
        {
          "name": "D5",
          "midi": 74,
          "time": 72.35286400000062,
          "velocity": 0.7874015748031497,
          "duration": 0.11029399999999612
        },
        {
          "name": "F#5",
          "midi": 78,
          "time": 72.35286400000062,
          "velocity": 0.7874015748031497,
          "duration": 0.11029399999999612
        },
        {
          "name": "D6",
          "midi": 86,
          "time": 72.35286400000062,
          "velocity": 0.7874015748031497,
          "duration": 0.11029399999999612
        },
        {
          "name": "B3",
          "midi": 59,
          "time": 72.57345200000061,
          "velocity": 0.7874015748031497,
          "duration": 0.11029399999999612
        },
        {
          "name": "B4",
          "midi": 71,
          "time": 72.68374600000061,
          "velocity": 0.7874015748031497,
          "duration": 0.11029399999999612
        },
        {
          "name": "F#5",
          "midi": 78,
          "time": 72.68374600000061,
          "velocity": 0.7874015748031497,
          "duration": 0.11029399999999612
        },
        {
          "name": "B5",
          "midi": 83,
          "time": 72.68374600000061,
          "velocity": 0.7874015748031497,
          "duration": 0.11029399999999612
        },
        {
          "name": "B3",
          "midi": 59,
          "time": 72.7940400000006,
          "velocity": 0.7874015748031497,
          "duration": 0.11029399999999612
        },
        {
          "name": "B3",
          "midi": 59,
          "time": 73.0146280000006,
          "velocity": 0.7874015748031497,
          "duration": 0.11029399999999612
        },
        {
          "name": "B3",
          "midi": 59,
          "time": 73.23521600000059,
          "velocity": 0.7874015748031497,
          "duration": 0.11029399999999612
        },
        {
          "name": "B3",
          "midi": 59,
          "time": 73.45580400000058,
          "velocity": 0.7874015748031497,
          "duration": 0.11029399999999612
        },
        {
          "name": "D5",
          "midi": 74,
          "time": 73.45580400000058,
          "velocity": 0.7874015748031497,
          "duration": 0.11029399999999612
        },
        {
          "name": "F#5",
          "midi": 78,
          "time": 73.45580400000058,
          "velocity": 0.7874015748031497,
          "duration": 0.11029399999999612
        },
        {
          "name": "D6",
          "midi": 86,
          "time": 73.45580400000058,
          "velocity": 0.7874015748031497,
          "duration": 0.11029399999999612
        },
        {
          "name": "B3",
          "midi": 59,
          "time": 73.67639200000058,
          "velocity": 0.7874015748031497,
          "duration": 0.11029399999999612
        },
        {
          "name": "B4",
          "midi": 71,
          "time": 73.78668600000057,
          "velocity": 0.7874015748031497,
          "duration": 0.11029399999999612
        },
        {
          "name": "F#5",
          "midi": 78,
          "time": 73.78668600000057,
          "velocity": 0.7874015748031497,
          "duration": 0.11029399999999612
        },
        {
          "name": "B5",
          "midi": 83,
          "time": 73.78668600000057,
          "velocity": 0.7874015748031497,
          "duration": 0.11029399999999612
        },
        {
          "name": "B3",
          "midi": 59,
          "time": 73.89698000000057,
          "velocity": 0.7874015748031497,
          "duration": 0.11029399999999612
        },
        {
          "name": "B3",
          "midi": 59,
          "time": 74.11756800000056,
          "velocity": 0.7874015748031497,
          "duration": 0.11029399999999612
        },
        {
          "name": "B4",
          "midi": 71,
          "time": 74.11756800000056,
          "velocity": 0.7874015748031497,
          "duration": 0.11029399999999612
        },
        {
          "name": "F#5",
          "midi": 78,
          "time": 74.11756800000056,
          "velocity": 0.7874015748031497,
          "duration": 0.11029399999999612
        },
        {
          "name": "B5",
          "midi": 83,
          "time": 74.11756800000056,
          "velocity": 0.7874015748031497,
          "duration": 0.11029399999999612
        },
        {
          "name": "B3",
          "midi": 59,
          "time": 74.33815600000055,
          "velocity": 0.7874015748031497,
          "duration": 0.11029399999999612
        },
        {
          "name": "B4",
          "midi": 71,
          "time": 74.33815600000055,
          "velocity": 0.7874015748031497,
          "duration": 0.11029399999999612
        },
        {
          "name": "F#5",
          "midi": 78,
          "time": 74.33815600000055,
          "velocity": 0.7874015748031497,
          "duration": 0.11029399999999612
        },
        {
          "name": "B5",
          "midi": 83,
          "time": 74.33815600000055,
          "velocity": 0.7874015748031497,
          "duration": 0.11029399999999612
        },
        {
          "name": "B3",
          "midi": 59,
          "time": 74.55874400000054,
          "velocity": 0.7874015748031497,
          "duration": 0.11029399999999612
        },
        {
          "name": "B3",
          "midi": 59,
          "time": 74.77933200000054,
          "velocity": 0.7874015748031497,
          "duration": 0.11029399999999612
        },
        {
          "name": "B3",
          "midi": 59,
          "time": 74.99992000000053,
          "velocity": 0.7874015748031497,
          "duration": 0.11029399999999612
        },
        {
          "name": "B3",
          "midi": 59,
          "time": 75.22050800000052,
          "velocity": 0.7874015748031497,
          "duration": 0.11029399999999612
        },
        {
          "name": "B3",
          "midi": 59,
          "time": 75.44109600000051,
          "velocity": 0.7874015748031497,
          "duration": 0.11029399999999612
        },
        {
          "name": "B3",
          "midi": 59,
          "time": 75.6616840000005,
          "velocity": 0.7874015748031497,
          "duration": 0.11029399999999612
        },
        {
          "name": "B3",
          "midi": 59,
          "time": 75.8822720000005,
          "velocity": 0.7874015748031497,
          "duration": 0.11029399999999612
        },
        {
          "name": "B6",
          "midi": 95,
          "time": 76.10286000000049,
          "velocity": 0.7874015748031497,
          "duration": 0.22058800000000645
        },
        {
          "name": "B5",
          "midi": 83,
          "time": 76.10286000000049,
          "velocity": 0.7874015748031497,
          "duration": 0.22058800000000645
        },
        {
          "name": "F#6",
          "midi": 90,
          "time": 76.10286000000049,
          "velocity": 0.7874015748031497,
          "duration": 0.22058800000000645
        },
        {
          "name": "B2",
          "midi": 47,
          "time": 76.10286000000049,
          "velocity": 0.7874015748031497,
          "duration": 0.22058800000000645
        },
        {
          "name": "B1",
          "midi": 35,
          "time": 76.10286000000049,
          "velocity": 0.7874015748031497,
          "duration": 0.22058800000000645
        },
        {
          "name": "F#6",
          "midi": 90,
          "time": 76.5440360000005,
          "velocity": 0.7874015748031497,
          "duration": 0.22058800000000645
        },
        {
          "name": "B6",
          "midi": 95,
          "time": 76.5440360000005,
          "velocity": 0.7874015748031497,
          "duration": 0.22058800000000645
        },
        {
          "name": "B5",
          "midi": 83,
          "time": 76.5440360000005,
          "velocity": 0.7874015748031497,
          "duration": 0.22058800000000645
        },
        {
          "name": "B2",
          "midi": 47,
          "time": 76.5440360000005,
          "velocity": 0.7874015748031497,
          "duration": 0.22058800000000645
        },
        {
          "name": "B1",
          "midi": 35,
          "time": 76.5440360000005,
          "velocity": 0.7874015748031497,
          "duration": 0.22058800000000645
        }
      ],
      "controlChanges": {},
      "id": 0,
      "name": "Electric Guitar",
      "instrumentNumber": 29,
      "instrument": "overdriven guitar",
      "instrumentFamily": "guitar",
      "channelNumber": 0,
      "isPercussion": false
    },
    {
      "startTime": 15.44116,
      "duration": 63.41905000000034,
      "length": 128,
      "notes": [
        {
          "name": "B2",
          "midi": 47,
          "time": 15.44116,
          "velocity": 0.6614173228346457,
          "duration": 0.11029399999999967
        },
        {
          "name": "D3",
          "midi": 50,
          "time": 15.661748,
          "velocity": 0.6614173228346457,
          "duration": 0.11029399999999967
        },
        {
          "name": "B2",
          "midi": 47,
          "time": 15.882335999999999,
          "velocity": 0.6614173228346457,
          "duration": 0.11029399999999967
        },
        {
          "name": "D3",
          "midi": 50,
          "time": 16.102923999999998,
          "velocity": 0.6614173228346457,
          "duration": 0.22058799999999934
        },
        {
          "name": "E3",
          "midi": 52,
          "time": 16.544099999999997,
          "velocity": 0.6614173228346457,
          "duration": 0.11029399999999967
        },
        {
          "name": "D3",
          "midi": 50,
          "time": 16.764687999999996,
          "velocity": 0.6614173228346457,
          "duration": 0.11029399999999967
        },
        {
          "name": "F#3",
          "midi": 54,
          "time": 16.985275999999995,
          "velocity": 0.6614173228346457,
          "duration": 0.22058799999999934
        },
        {
          "name": "B2",
          "midi": 47,
          "time": 17.426451999999994,
          "velocity": 0.6614173228346457,
          "duration": 0.11029399999999967
        },
        {
          "name": "B2",
          "midi": 47,
          "time": 18.970567999999993,
          "velocity": 0.6614173228346457,
          "duration": 0.11029399999999967
        },
        {
          "name": "D3",
          "midi": 50,
          "time": 19.191155999999992,
          "velocity": 0.6614173228346457,
          "duration": 0.11029399999999967
        },
        {
          "name": "B2",
          "midi": 47,
          "time": 19.41174399999999,
          "velocity": 0.6614173228346457,
          "duration": 0.11029399999999967
        },
        {
          "name": "D3",
          "midi": 50,
          "time": 19.63233199999999,
          "velocity": 0.6614173228346457,
          "duration": 0.22058799999999934
        },
        {
          "name": "E3",
          "midi": 52,
          "time": 20.07350799999999,
          "velocity": 0.6614173228346457,
          "duration": 0.11029399999999967
        },
        {
          "name": "D3",
          "midi": 50,
          "time": 20.29409599999999,
          "velocity": 0.6614173228346457,
          "duration": 0.11029399999999967
        },
        {
          "name": "F#3",
          "midi": 54,
          "time": 20.51468399999999,
          "velocity": 0.6614173228346457,
          "duration": 0.22058799999999934
        },
        {
          "name": "B2",
          "midi": 47,
          "time": 20.955859999999987,
          "velocity": 0.6614173228346457,
          "duration": 0.11029399999999967
        },
        {
          "name": "B2",
          "midi": 47,
          "time": 22.499975999999986,
          "velocity": 0.6614173228346457,
          "duration": 0.11029399999999967
        },
        {
          "name": "D3",
          "midi": 50,
          "time": 22.720563999999985,
          "velocity": 0.6614173228346457,
          "duration": 0.11029399999999967
        },
        {
          "name": "B2",
          "midi": 47,
          "time": 22.941151999999985,
          "velocity": 0.6614173228346457,
          "duration": 0.11029399999999967
        },
        {
          "name": "D3",
          "midi": 50,
          "time": 23.161739999999984,
          "velocity": 0.6614173228346457,
          "duration": 0.22058799999999934
        },
        {
          "name": "E3",
          "midi": 52,
          "time": 23.602915999999983,
          "velocity": 0.6614173228346457,
          "duration": 0.11029399999999967
        },
        {
          "name": "D3",
          "midi": 50,
          "time": 23.823503999999982,
          "velocity": 0.6614173228346457,
          "duration": 0.11029399999999967
        },
        {
          "name": "F#3",
          "midi": 54,
          "time": 24.04409199999998,
          "velocity": 0.6614173228346457,
          "duration": 0.22058799999999934
        },
        {
          "name": "B2",
          "midi": 47,
          "time": 24.48526799999998,
          "velocity": 0.6614173228346457,
          "duration": 0.11029399999999967
        },
        {
          "name": "B2",
          "midi": 47,
          "time": 26.02938399999998,
          "velocity": 0.6614173228346457,
          "duration": 0.11029399999999967
        },
        {
          "name": "D3",
          "midi": 50,
          "time": 26.24997199999998,
          "velocity": 0.6614173228346457,
          "duration": 0.11029399999999967
        },
        {
          "name": "B2",
          "midi": 47,
          "time": 26.470559999999978,
          "velocity": 0.6614173228346457,
          "duration": 0.11029399999999967
        },
        {
          "name": "D3",
          "midi": 50,
          "time": 26.691147999999977,
          "velocity": 0.6614173228346457,
          "duration": 0.22058799999999934
        },
        {
          "name": "E3",
          "midi": 52,
          "time": 27.132323999999976,
          "velocity": 0.6614173228346457,
          "duration": 0.11029399999999967
        },
        {
          "name": "D3",
          "midi": 50,
          "time": 27.352911999999975,
          "velocity": 0.6614173228346457,
          "duration": 0.11029399999999967
        },
        {
          "name": "F#3",
          "midi": 54,
          "time": 27.573499999999974,
          "velocity": 0.6614173228346457,
          "duration": 0.22058799999999934
        },
        {
          "name": "B2",
          "midi": 47,
          "time": 28.014675999999973,
          "velocity": 0.6614173228346457,
          "duration": 0.11029399999999967
        },
        {
          "name": "B2",
          "midi": 47,
          "time": 29.558791999999972,
          "velocity": 0.6614173228346457,
          "duration": 0.11029399999999967
        },
        {
          "name": "D3",
          "midi": 50,
          "time": 29.77937999999997,
          "velocity": 0.6614173228346457,
          "duration": 0.11029399999999967
        },
        {
          "name": "B2",
          "midi": 47,
          "time": 29.99996799999997,
          "velocity": 0.6614173228346457,
          "duration": 0.11029399999999967
        },
        {
          "name": "D3",
          "midi": 50,
          "time": 30.22055599999997,
          "velocity": 0.6614173228346457,
          "duration": 0.22058799999999934
        },
        {
          "name": "E3",
          "midi": 52,
          "time": 30.66173199999997,
          "velocity": 0.6614173228346457,
          "duration": 0.11029399999999967
        },
        {
          "name": "D3",
          "midi": 50,
          "time": 30.882319999999968,
          "velocity": 0.6614173228346457,
          "duration": 0.11029399999999967
        },
        {
          "name": "F#3",
          "midi": 54,
          "time": 31.102907999999967,
          "velocity": 0.6614173228346457,
          "duration": 0.22058799999999934
        },
        {
          "name": "B2",
          "midi": 47,
          "time": 31.544083999999966,
          "velocity": 0.6614173228346457,
          "duration": 0.11029399999999967
        },
        {
          "name": "B2",
          "midi": 47,
          "time": 33.088199999999965,
          "velocity": 0.6614173228346457,
          "duration": 0.11029400000000322
        },
        {
          "name": "D3",
          "midi": 50,
          "time": 33.30878799999997,
          "velocity": 0.6614173228346457,
          "duration": 0.11029400000000322
        },
        {
          "name": "B2",
          "midi": 47,
          "time": 33.52937599999998,
          "velocity": 0.6614173228346457,
          "duration": 0.11029400000000322
        },
        {
          "name": "D3",
          "midi": 50,
          "time": 33.749963999999984,
          "velocity": 0.6614173228346457,
          "duration": 0.22058799999999934
        },
        {
          "name": "E3",
          "midi": 52,
          "time": 34.19113999999998,
          "velocity": 0.6614173228346457,
          "duration": 0.11029400000000322
        },
        {
          "name": "D3",
          "midi": 50,
          "time": 34.41172799999999,
          "velocity": 0.6614173228346457,
          "duration": 0.11029400000000322
        },
        {
          "name": "F#3",
          "midi": 54,
          "time": 34.632315999999996,
          "velocity": 0.6614173228346457,
          "duration": 0.22058799999999934
        },
        {
          "name": "B2",
          "midi": 47,
          "time": 35.073491999999995,
          "velocity": 0.6614173228346457,
          "duration": 0.11029400000000322
        },
        {
          "name": "B2",
          "midi": 47,
          "time": 36.617608,
          "velocity": 0.6614173228346457,
          "duration": 0.11029400000000322
        },
        {
          "name": "D3",
          "midi": 50,
          "time": 36.838196,
          "velocity": 0.6614173228346457,
          "duration": 0.11029400000000322
        },
        {
          "name": "B2",
          "midi": 47,
          "time": 37.05878400000001,
          "velocity": 0.6614173228346457,
          "duration": 0.11029400000000322
        },
        {
          "name": "D3",
          "midi": 50,
          "time": 37.279372000000016,
          "velocity": 0.6614173228346457,
          "duration": 0.22058799999999934
        },
        {
          "name": "E3",
          "midi": 52,
          "time": 37.720548000000015,
          "velocity": 0.6614173228346457,
          "duration": 0.11029400000000322
        },
        {
          "name": "D3",
          "midi": 50,
          "time": 37.94113600000002,
          "velocity": 0.6614173228346457,
          "duration": 0.11029400000000322
        },
        {
          "name": "F#3",
          "midi": 54,
          "time": 38.16172400000003,
          "velocity": 0.6614173228346457,
          "duration": 0.22058799999999934
        },
        {
          "name": "B2",
          "midi": 47,
          "time": 38.60290000000003,
          "velocity": 0.6614173228346457,
          "duration": 0.11029400000000322
        },
        {
          "name": "B2",
          "midi": 47,
          "time": 40.14701600000003,
          "velocity": 0.6614173228346457,
          "duration": 0.11029400000000322
        },
        {
          "name": "D3",
          "midi": 50,
          "time": 40.367604000000036,
          "velocity": 0.6614173228346457,
          "duration": 0.11029400000000322
        },
        {
          "name": "B2",
          "midi": 47,
          "time": 40.58819200000004,
          "velocity": 0.6614173228346457,
          "duration": 0.11029400000000322
        },
        {
          "name": "D3",
          "midi": 50,
          "time": 40.80878000000005,
          "velocity": 0.6614173228346457,
          "duration": 0.22058799999999934
        },
        {
          "name": "E3",
          "midi": 52,
          "time": 41.24995600000005,
          "velocity": 0.6614173228346457,
          "duration": 0.11029400000000322
        },
        {
          "name": "D3",
          "midi": 50,
          "time": 41.470544000000054,
          "velocity": 0.6614173228346457,
          "duration": 0.11029400000000322
        },
        {
          "name": "F#3",
          "midi": 54,
          "time": 41.69113200000006,
          "velocity": 0.6614173228346457,
          "duration": 0.22058799999999934
        },
        {
          "name": "B2",
          "midi": 47,
          "time": 42.13230800000006,
          "velocity": 0.6614173228346457,
          "duration": 0.11029400000000322
        },
        {
          "name": "B2",
          "midi": 47,
          "time": 42.573484000000064,
          "velocity": 0.6614173228346457,
          "duration": 0.11029400000000322
        },
        {
          "name": "B2",
          "midi": 47,
          "time": 43.01466000000007,
          "velocity": 0.6614173228346457,
          "duration": 0.11029400000000322
        },
        {
          "name": "B2",
          "midi": 47,
          "time": 43.676424000000075,
          "velocity": 0.6614173228346457,
          "duration": 0.11029400000000322
        },
        {
          "name": "D3",
          "midi": 50,
          "time": 43.89701200000008,
          "velocity": 0.6614173228346457,
          "duration": 0.11029400000000322
        },
        {
          "name": "B2",
          "midi": 47,
          "time": 44.11760000000009,
          "velocity": 0.6614173228346457,
          "duration": 0.11029400000000322
        },
        {
          "name": "D3",
          "midi": 50,
          "time": 44.338188000000095,
          "velocity": 0.6614173228346457,
          "duration": 0.22058799999999934
        },
        {
          "name": "E3",
          "midi": 52,
          "time": 44.77936400000009,
          "velocity": 0.6614173228346457,
          "duration": 0.11029400000000322
        },
        {
          "name": "D3",
          "midi": 50,
          "time": 44.9999520000001,
          "velocity": 0.6614173228346457,
          "duration": 0.11029400000000322
        },
        {
          "name": "F#3",
          "midi": 54,
          "time": 45.220540000000106,
          "velocity": 0.6614173228346457,
          "duration": 0.22058799999999934
        },
        {
          "name": "B2",
          "midi": 47,
          "time": 45.661716000000105,
          "velocity": 0.6614173228346457,
          "duration": 0.11029400000000322
        },
        {
          "name": "B2",
          "midi": 47,
          "time": 46.10289200000011,
          "velocity": 0.6614173228346457,
          "duration": 0.11029400000000322
        },
        {
          "name": "B2",
          "midi": 47,
          "time": 46.54406800000012,
          "velocity": 0.6614173228346457,
          "duration": 0.11029400000000322
        },
        {
          "name": "B2",
          "midi": 47,
          "time": 47.20583200000012,
          "velocity": 0.6614173228346457,
          "duration": 0.11029400000000322
        },
        {
          "name": "D3",
          "midi": 50,
          "time": 47.42642000000013,
          "velocity": 0.6614173228346457,
          "duration": 0.11029400000000322
        },
        {
          "name": "B2",
          "midi": 47,
          "time": 47.647008000000135,
          "velocity": 0.6614173228346457,
          "duration": 0.11029400000000322
        },
        {
          "name": "D3",
          "midi": 50,
          "time": 47.86759600000014,
          "velocity": 0.6614173228346457,
          "duration": 0.22058799999999934
        },
        {
          "name": "E3",
          "midi": 52,
          "time": 48.30877200000014,
          "velocity": 0.6614173228346457,
          "duration": 0.11029400000000322
        },
        {
          "name": "D3",
          "midi": 50,
          "time": 48.529360000000146,
          "velocity": 0.6614173228346457,
          "duration": 0.11029400000000322
        },
        {
          "name": "F#3",
          "midi": 54,
          "time": 48.74994800000015,
          "velocity": 0.6614173228346457,
          "duration": 0.22058799999999934
        },
        {
          "name": "B2",
          "midi": 47,
          "time": 49.19112400000015,
          "velocity": 0.6614173228346457,
          "duration": 0.11029400000000322
        },
        {
          "name": "B2",
          "midi": 47,
          "time": 49.63230000000016,
          "velocity": 0.6614173228346457,
          "duration": 0.11029400000000322
        },
        {
          "name": "B2",
          "midi": 47,
          "time": 50.07347600000016,
          "velocity": 0.6614173228346457,
          "duration": 0.11029400000000322
        },
        {
          "name": "B2",
          "midi": 47,
          "time": 50.73524000000017,
          "velocity": 0.6614173228346457,
          "duration": 0.11029400000000322
        },
        {
          "name": "D3",
          "midi": 50,
          "time": 50.955828000000174,
          "velocity": 0.6614173228346457,
          "duration": 0.11029400000000322
        },
        {
          "name": "B2",
          "midi": 47,
          "time": 51.17641600000018,
          "velocity": 0.6614173228346457,
          "duration": 0.11029400000000322
        },
        {
          "name": "D3",
          "midi": 50,
          "time": 51.39700400000019,
          "velocity": 0.6614173228346457,
          "duration": 0.22058799999999934
        },
        {
          "name": "E3",
          "midi": 52,
          "time": 51.838180000000186,
          "velocity": 0.6614173228346457,
          "duration": 0.11029400000000322
        },
        {
          "name": "D3",
          "midi": 50,
          "time": 52.05876800000019,
          "velocity": 0.6614173228346457,
          "duration": 0.11029400000000322
        },
        {
          "name": "F#3",
          "midi": 54,
          "time": 52.2793560000002,
          "velocity": 0.6614173228346457,
          "duration": 0.22058799999999934
        },
        {
          "name": "B2",
          "midi": 47,
          "time": 52.7205320000002,
          "velocity": 0.6614173228346457,
          "duration": 0.11029400000000322
        },
        {
          "name": "B2",
          "midi": 47,
          "time": 53.1617080000002,
          "velocity": 0.6614173228346457,
          "duration": 0.11029400000000322
        },
        {
          "name": "B2",
          "midi": 47,
          "time": 53.60288400000021,
          "velocity": 0.6614173228346457,
          "duration": 0.11029400000000322
        },
        {
          "name": "B2",
          "midi": 47,
          "time": 54.264648000000214,
          "velocity": 0.6614173228346457,
          "duration": 0.11029400000000322
        },
        {
          "name": "D3",
          "midi": 50,
          "time": 54.48523600000022,
          "velocity": 0.6614173228346457,
          "duration": 0.11029400000000322
        },
        {
          "name": "B2",
          "midi": 47,
          "time": 54.70582400000023,
          "velocity": 0.6614173228346457,
          "duration": 0.11029400000000322
        },
        {
          "name": "D3",
          "midi": 50,
          "time": 54.926412000000234,
          "velocity": 0.6614173228346457,
          "duration": 0.22058799999999934
        },
        {
          "name": "E3",
          "midi": 52,
          "time": 55.36758800000023,
          "velocity": 0.6614173228346457,
          "duration": 0.11029400000000322
        },
        {
          "name": "D3",
          "midi": 50,
          "time": 55.58817600000024,
          "velocity": 0.6614173228346457,
          "duration": 0.11029400000000322
        },
        {
          "name": "F#3",
          "midi": 54,
          "time": 55.808764000000245,
          "velocity": 0.6614173228346457,
          "duration": 0.22058799999999934
        },
        {
          "name": "B2",
          "midi": 47,
          "time": 56.249940000000244,
          "velocity": 0.6614173228346457,
          "duration": 0.11029400000000322
        },
        {
          "name": "F#2",
          "midi": 42,
          "time": 56.69111600000025,
          "velocity": 0.6614173228346457,
          "duration": 0.11029400000000322
        },
        {
          "name": "B2",
          "midi": 47,
          "time": 56.69111600000025,
          "velocity": 0.6614173228346457,
          "duration": 0.11029400000000322
        },
        {
          "name": "B2",
          "midi": 47,
          "time": 57.132292000000255,
          "velocity": 0.6614173228346457,
          "duration": 0.11029400000000322
        },
        {
          "name": "F#2",
          "midi": 42,
          "time": 57.132292000000255,
          "velocity": 0.6614173228346457,
          "duration": 0.11029400000000322
        },
        {
          "name": "B2",
          "midi": 47,
          "time": 57.79405600000026,
          "velocity": 0.6614173228346457,
          "duration": 0.11029400000000322
        },
        {
          "name": "D3",
          "midi": 50,
          "time": 58.01464400000027,
          "velocity": 0.6614173228346457,
          "duration": 0.11029400000000322
        },
        {
          "name": "B2",
          "midi": 47,
          "time": 58.23523200000027,
          "velocity": 0.6614173228346457,
          "duration": 0.11029400000000322
        },
        {
          "name": "D3",
          "midi": 50,
          "time": 58.45582000000028,
          "velocity": 0.6614173228346457,
          "duration": 0.22058799999999934
        },
        {
          "name": "E3",
          "midi": 52,
          "time": 58.89699600000028,
          "velocity": 0.6614173228346457,
          "duration": 0.11029400000000322
        },
        {
          "name": "D3",
          "midi": 50,
          "time": 59.117584000000285,
          "velocity": 0.6614173228346457,
          "duration": 0.11029400000000322
        },
        {
          "name": "F#3",
          "midi": 54,
          "time": 59.33817200000029,
          "velocity": 0.6614173228346457,
          "duration": 0.22058799999999934
        },
        {
          "name": "B2",
          "midi": 47,
          "time": 59.77934800000029,
          "velocity": 0.6614173228346457,
          "duration": 0.11029400000000322
        },
        {
          "name": "F#2",
          "midi": 42,
          "time": 60.220524000000296,
          "velocity": 0.6614173228346457,
          "duration": 0.11029400000000322
        },
        {
          "name": "B2",
          "midi": 47,
          "time": 60.220524000000296,
          "velocity": 0.6614173228346457,
          "duration": 0.11029400000000322
        },
        {
          "name": "B2",
          "midi": 47,
          "time": 60.6617000000003,
          "velocity": 0.6614173228346457,
          "duration": 0.11029400000000322
        },
        {
          "name": "F#2",
          "midi": 42,
          "time": 60.6617000000003,
          "velocity": 0.6614173228346457,
          "duration": 0.11029400000000322
        },
        {
          "name": "B2",
          "midi": 47,
          "time": 61.32346400000031,
          "velocity": 0.6614173228346457,
          "duration": 0.11029400000000322
        },
        {
          "name": "D3",
          "midi": 50,
          "time": 61.54405200000031,
          "velocity": 0.6614173228346457,
          "duration": 0.11029400000000322
        },
        {
          "name": "B2",
          "midi": 47,
          "time": 61.76464000000032,
          "velocity": 0.6614173228346457,
          "duration": 0.11029400000000322
        },
        {
          "name": "D3",
          "midi": 50,
          "time": 61.985228000000326,
          "velocity": 0.6614173228346457,
          "duration": 0.22058799999999934
        },
        {
          "name": "E3",
          "midi": 52,
          "time": 62.426404000000325,
          "velocity": 0.6614173228346457,
          "duration": 0.11029400000000322
        },
        {
          "name": "D3",
          "midi": 50,
          "time": 62.64699200000033,
          "velocity": 0.6614173228346457,
          "duration": 0.11029400000000322
        },
        {
          "name": "F#3",
          "midi": 54,
          "time": 62.86758000000034,
          "velocity": 0.6614173228346457,
          "duration": 0.22058799999999934
        },
        {
          "name": "B2",
          "midi": 47,
          "time": 63.308756000000336,
          "velocity": 0.6614173228346457,
          "duration": 0.11029400000000322
        }
      ],
      "controlChanges": {},
      "id": 1,
      "name": "Bass Guitar (Classic)",
      "instrumentNumber": 32,
      "instrument": "acoustic bass",
      "instrumentFamily": "bass",
      "channelNumber": 1,
      "isPercussion": false
    }
  ]
}